<svg width="48" height="25" viewBox="0 0 48 25" fill="none" xmlns="http://www.w3.org/2000/svg">
<rect x="0.5" y="1.25" width="47" height="23" rx="11.5" fill="white"/>
<rect x="0.5" y="1.25" width="47" height="23" rx="11.5" stroke="#656565"/>
<path d="M14.4197 7.542H15.7277V18.222H14.4197V7.542ZM6.96772 15.258C7.79572 15.258 8.74372 15.258 9.73972 15.234V14.238C8.55172 14.046 7.78372 13.314 7.78372 12.294C7.78372 11.094 8.83972 10.302 10.3997 10.302C11.9477 10.302 13.0277 11.094 13.0277 12.294C13.0277 13.314 12.2477 14.046 11.0597 14.238V15.186C11.9957 15.138 12.9317 15.066 13.8197 14.946L13.9037 15.894C11.5637 16.326 9.04372 16.338 7.12372 16.338L6.96772 15.258ZM7.17172 8.766H9.73972V7.566H11.0597V8.766H13.6277V9.798H7.17172V8.766ZM10.3997 11.298C9.59572 11.298 9.03172 11.67 9.03172 12.294C9.03172 12.918 9.59572 13.29 10.3997 13.29C11.2157 13.29 11.7677 12.918 11.7677 12.294C11.7677 11.67 11.2157 11.298 10.3997 11.298ZM17.576 9.318H19.844V7.758H21.152V9.318H23.372V10.362H21.152V10.914C21.152 12.51 22.028 14.226 23.636 15.018L22.928 16.014C21.788 15.474 20.96 14.406 20.516 13.158C20.06 14.514 19.184 15.642 17.972 16.206L17.252 15.198C18.92 14.418 19.844 12.606 19.844 10.914V10.362H17.576V9.318ZM24.38 7.542H25.712V11.778H27.344V12.87H25.712V18.222H24.38V7.542Z" fill="#656565"/>
<path d="M39.0984 14.8526L36.7907 16.75M36.7907 16.75L34.4829 14.8526M36.7907 16.75L36.7907 11.1961C36.7907 9.84517 35.6955 8.75 34.3446 8.75V8.75C32.9936 8.75 31.8984 9.84517 31.8984 11.1961L31.8984 12.75" stroke="#656565" stroke-width="1.1" stroke-linecap="round" stroke-linejoin="round"/>
</svg>
