<svg width="40" height="40" viewBox="0 0 40 40" fill="none" xmlns="http://www.w3.org/2000/svg">
<mask id="mask0_1865_30015" style="mask-type:luminance" maskUnits="userSpaceOnUse" x="-1" y="-1" width="42" height="42">
<path d="M-0.000244141 0H40.0011V40.0013H-0.000244141V0Z" fill="white"/>
</mask>
<g mask="url(#mask0_1865_30015)">
<path d="M5.93921 24.6893C5.93921 32.4562 12.2354 38.8304 20.0022 38.8304C27.769 38.8304 34.0652 32.4562 34.0652 24.6893H5.93921Z" stroke="white" stroke-width="2" stroke-miterlimit="10"/>
<path d="M6.73706 29.377H12.9684L15.3122 31.7208H17.656V34.0647L19.9999 36.4085V38.8304" stroke="white" stroke-width="2" stroke-miterlimit="10"/>
<path d="M26.2909 37.2679L24.688 34.0622V31.7184L27.0318 29.3746H33.2631" stroke="white" stroke-width="2" stroke-miterlimit="10"/>
<path d="M16.7209 15.2353C16.7209 12.6464 14.6221 10.5477 12.0332 10.5477C9.44428 10.5477 7.34554 12.6464 7.34554 15.2353C6.05104 15.2353 5.00171 16.2846 5.00171 17.5791C5.00171 18.8736 6.05104 19.923 7.34554 19.923H16.7209C18.0154 19.923 19.0647 18.8736 19.0647 17.5791C19.0647 16.2846 18.0154 15.2353 16.7209 15.2353Z" stroke="white" stroke-width="2" stroke-miterlimit="10"/>
<path d="M17.6567 15.3114H31.7197C33.0142 15.3114 34.0635 14.2621 34.0635 12.9676C34.0635 11.6731 33.0142 10.6237 31.7197 10.6237C31.7197 8.03483 29.621 5.93609 27.032 5.93609C26.992 5.93609 26.9549 5.94679 26.9152 5.94781C26.3767 3.26764 24.0112 1.1703 21.1725 1.1703C18.3337 1.1703 15.9682 3.26764 15.4298 5.94781C15.39 5.94679 15.353 5.93609 15.3129 5.93609C12.724 5.93609 10.6252 8.03483 10.6252 10.6237" stroke="white" stroke-width="2" stroke-miterlimit="10"/>
</g>
</svg>
