<svg width="16" height="16" viewBox="0 0 16 16" fill="none" xmlns="http://www.w3.org/2000/svg">
<path d="M7.80078 3.20117L10.8008 7.20117H4.80078L7.80078 3.20117Z" fill="white"/>
<path d="M7.80078 3.20117L10.8008 7.20117H4.80078L7.80078 3.20117Z" fill="white"/>
<path d="M7.80078 3.20117L10.8008 7.20117H4.80078L7.80078 3.20117Z" fill="white"/>
<path d="M7.80078 3.20117L10.8008 7.20117H4.80078L7.80078 3.20117Z" fill="white"/>
<path d="M8 14L5 10L11 10L8 14Z" fill="white"/>
<path d="M8 14L5 10L11 10L8 14Z" fill="white"/>
<path d="M8 14L5 10L11 10L8 14Z" fill="white"/>
<path d="M8 14L5 10L11 10L8 14Z" fill="white"/>
</svg>
