<svg width="24" height="16" viewBox="0 0 24 16" fill="none" xmlns="http://www.w3.org/2000/svg">
<path d="M5.37724 2.22793C5.11812 2.22793 4.86962 2.33086 4.6864 2.51408C4.50317 2.69731 4.40024 2.94581 4.40024 3.20493C4.40024 3.46404 4.50317 3.71255 4.6864 3.89577C4.86962 4.07899 5.11812 4.18193 5.37724 4.18193H6.75324C6.85124 4.18193 6.93924 4.23893 6.97824 4.32793L7.60324 5.86193C7.62505 5.89888 7.63656 5.94101 7.63656 5.98393C7.63656 6.02684 7.62505 6.06897 7.60324 6.10593L7.26124 6.53593C7.22702 6.57836 7.17957 6.60812 7.12646 6.62044C7.07336 6.63277 7.01766 6.62695 6.96824 6.60393C6.31884 6.29363 5.60797 6.13334 4.88824 6.13493C1.12824 6.13793 -1.21876 10.2099 0.66324 13.4649C2.54524 16.7199 7.24524 16.7149 9.12324 13.4579C9.35185 13.0582 9.52415 12.6288 9.63524 12.1819C9.6466 12.1286 9.67616 12.0809 9.71886 12.0469C9.76155 12.013 9.81471 11.995 9.86924 11.9959H10.2602C10.4142 11.9961 10.5661 11.96 10.7035 11.8905C10.841 11.821 10.9601 11.7201 11.0512 11.5959L15.2322 5.89093C15.2576 5.85604 15.2918 5.82862 15.3314 5.81155C15.371 5.79448 15.4145 5.78839 15.4572 5.79393C15.5041 5.80584 15.5462 5.83192 15.5776 5.8686C15.6091 5.90529 15.6286 5.9508 15.6332 5.99893L15.9062 6.74093C15.9272 6.79248 15.9299 6.84964 15.9139 6.90293C15.8979 6.95622 15.8641 7.00244 15.8182 7.03393C12.7512 9.20793 13.1882 13.8879 16.6042 15.4569C20.0202 17.0269 23.8542 14.3089 23.5052 10.5649C23.391 9.33976 22.8186 8.20285 21.9023 7.38153C20.9861 6.56021 19.7936 6.115 18.5632 6.13493C18.3844 6.12531 18.2051 6.12531 18.0262 6.13493C17.9708 6.14505 17.9136 6.13485 17.8651 6.1062C17.8166 6.07754 17.7801 6.03235 17.7622 5.97893L16.5322 2.67793C16.5079 2.61141 16.5079 2.53844 16.5322 2.47193C16.5679 2.41485 16.6235 2.37313 16.6882 2.35493L18.3982 1.92493C18.6495 1.86127 18.8652 1.7004 18.9979 1.4777C19.1306 1.255 19.1694 0.988719 19.1057 0.737426C19.0421 0.486134 18.8812 0.270419 18.6585 0.137737C18.4358 0.00505468 18.1695 -0.0337258 17.9182 0.0299262L15.4282 0.655926C15.0082 0.745926 14.6502 1.01793 14.4512 1.39793C14.2562 1.76493 14.2242 2.19793 14.3632 2.58993L14.4412 2.79493C14.5012 2.92493 14.4312 3.07693 14.2952 3.11693L9.53724 4.82693C9.47902 4.84867 9.41455 4.84646 9.35795 4.82078C9.30135 4.79511 9.25723 4.74806 9.23524 4.68993L9.11724 4.41593C9.10554 4.39159 9.09946 4.36493 9.09946 4.33793C9.09946 4.31092 9.10554 4.28426 9.11724 4.25993C9.13422 4.23662 9.15628 4.21749 9.18175 4.20398C9.20722 4.19046 9.23543 4.18292 9.26424 4.18193C9.52336 4.18193 9.77186 4.07899 9.95508 3.89577C10.1383 3.71255 10.2412 3.46404 10.2412 3.20493C10.2412 2.94581 10.1383 2.69731 9.95508 2.51408C9.77186 2.33086 9.52336 2.22793 9.26424 2.22793H5.37724ZM4.88724 13.9499C2.63224 13.9569 1.21524 11.5189 2.33724 9.56193C3.45924 7.60493 6.27924 7.59693 7.41324 9.54693C7.43857 9.59093 7.46291 9.63559 7.48624 9.68093C7.50539 9.71874 7.51538 9.76054 7.51538 9.80293C7.51538 9.84532 7.50539 9.88711 7.48624 9.92493C7.46383 9.9594 7.43357 9.98808 7.39794 10.0086C7.3623 10.0291 7.32231 10.0409 7.28124 10.0429H4.88724C4.63367 10.051 4.39319 10.1575 4.21669 10.3397C4.04018 10.522 3.94149 10.7657 3.94149 11.0194C3.94149 11.2731 4.04018 11.5169 4.21669 11.6991C4.39319 11.8814 4.63367 11.9878 4.88724 11.9959H7.27024C7.31169 11.9962 7.35236 12.0072 7.38829 12.0279C7.42421 12.0486 7.45417 12.0782 7.47524 12.1139C7.51524 12.1869 7.51524 12.2749 7.47524 12.3479C7.23198 12.8264 6.86197 13.2288 6.40558 13.5113C5.94919 13.7938 5.42397 13.9456 4.88724 13.9499ZM9.82124 9.96493C9.80628 9.97334 9.7894 9.97775 9.77224 9.97775C9.75508 9.97775 9.7382 9.97334 9.72324 9.96493C9.70628 9.96259 9.69019 9.95594 9.67654 9.94561C9.66288 9.93528 9.6521 9.92162 9.64524 9.90593C9.49691 9.23698 9.20708 8.60754 8.79524 8.05993C8.76269 8.01612 8.74511 7.963 8.74511 7.90843C8.74511 7.85385 8.76269 7.80073 8.79524 7.75693L9.34224 6.97593C9.37724 6.96621 9.41424 6.96621 9.44924 6.97593L12.2142 5.99893C12.3142 5.96193 12.4272 5.99893 12.4872 6.08693C12.5542 6.16893 12.5542 6.28693 12.4872 6.36993L9.82124 9.96493ZM18.6122 13.9499C17.8352 13.9499 17.0899 13.6412 16.5404 13.0917C15.9909 12.5423 15.6822 11.797 15.6822 11.0199C15.6916 10.2944 15.9699 9.59808 16.4632 9.06593C16.475 9.03317 16.4944 9.00367 16.5198 8.97985C16.5451 8.95604 16.5758 8.93858 16.6092 8.92893C16.6509 8.93699 16.6899 8.95554 16.7224 8.98283C16.755 9.01013 16.78 9.04526 16.7952 9.08493L17.6152 11.3129C17.7552 11.6989 18.1232 11.9569 18.5342 11.9569C18.6509 11.9569 18.7649 11.9376 18.8762 11.8989C18.997 11.8543 19.1078 11.7863 19.2021 11.6987C19.2965 11.6111 19.3727 11.5058 19.4262 11.3887C19.4797 11.2716 19.5096 11.1451 19.514 11.0164C19.5185 10.8877 19.4975 10.7594 19.4522 10.6389L18.4752 8.07893C20.7312 8.07893 22.1412 10.5209 21.0132 12.4749C20.756 12.9204 20.3861 13.2904 19.9405 13.5475C19.495 13.8047 18.9897 13.94 18.4752 13.9399L18.6122 13.9499Z" fill="white"/>
</svg>
