<svg width="13" height="12" viewBox="0 0 13 12" fill="none" xmlns="http://www.w3.org/2000/svg">
<path d="M9.75 10.7368H3.25V11.3684C3.25 11.5359 3.18152 11.6966 3.05962 11.815C2.93772 11.9335 2.77239 12 2.6 12H1.95C1.77761 12 1.61228 11.9335 1.49038 11.815C1.36848 11.6966 1.3 11.5359 1.3 11.3684V10.7368H0.65V5.68421H0V3.15789H0.65V1.26316C0.65 0.928148 0.786964 0.606858 1.03076 0.36997C1.27456 0.133082 1.60522 0 1.95 0H11.05C11.3948 0 11.7254 0.133082 11.9692 0.36997C12.213 0.606858 12.35 0.928148 12.35 1.26316V3.15789H13V5.68421H12.35V10.7368H11.7V11.3684C11.7 11.5359 11.6315 11.6966 11.5096 11.815C11.3877 11.9335 11.2224 12 11.05 12H10.4C10.2276 12 10.0623 11.9335 9.94038 11.815C9.81848 11.6966 9.75 11.5359 9.75 11.3684V10.7368ZM11.05 5.68421V1.26316H1.95V5.68421H11.05ZM11.05 6.94737H1.95V9.47368H11.05V6.94737ZM2.6 7.57895H5.2V8.8421H2.6V7.57895ZM7.8 7.57895H10.4V8.8421H7.8V7.57895Z" fill="white"/>
</svg>
