<svg xmlns="http://www.w3.org/2000/svg" width="84" height="44" viewBox="0 0 84 44" fill="none">
  <g filter="url(#filter0_d_1901_20754)">
    <path d="M11.8186 25.4517V23.8591C11.8186 23.509 12.0751 23.2041 12.4208 23.1589L12.6885 23.125V25.4403H11.8074L11.8186 25.4517Z" fill="#FFD040"/>
    <path d="M18.9795 29.8449L12.3663 29.2351V22.707L13.8607 13.1296C14.1618 12.4294 15.5112 12.4972 15.5112 12.4972H34.3806L35.1612 11.1758H56.4952L59.0044 12.7457H69.6547C70.5803 12.7457 71.3609 13.2991 71.4836 14.2252L72.1416 19.2736L72.0747 29.3932L62.1939 29.8562H18.9684L18.9795 29.8449Z" fill="#40C1AC"/>
    <path d="M30.851 26.8281H50.501V29.5839H30.851V26.8281Z" fill="#B8F5FF"/>
    <path d="M71.7588 29.3152L60.2052 29.6314V27.1016H71.7588V29.3152Z" fill="#B8F5FF"/>
    <path d="M12.7953 26.8281H21.0479V29.5839H12.7953V26.8281Z" fill="#B8F5FF"/>
    <path d="M13.0713 29.8913H11.6773C11.4096 29.8913 11.1866 29.6654 11.1866 29.3944V28.4343C11.1866 28.2084 11.3651 28.0391 11.5769 28.0391H13.0601V29.9026L13.0713 29.8913Z" fill="#339683"/>
    <path d="M37.4539 11.3984H47.3682V12.7537H37.4539V11.3984Z" fill="#B8F5FF"/>
    <path d="M13.021 26.7736V22.1882L13.2775 20.8555H20.1807V24.2549L20.0134 26.7736H13.021Z" fill="#339683"/>
    <path d="M17.1572 19.6219H13.9677C13.6889 19.6219 13.4882 19.3283 13.5774 19.0572L13.99 15.2511C14.0458 15.0817 14.2019 14.9688 14.3803 14.9688H17.1572V19.6219Z" fill="#29646D"/>
    <path d="M19.4902 19.5859H17.7393V15.0004H19.4902C19.7467 14.9892 19.9697 15.1924 19.9697 15.4296V19.1567C19.9697 19.3939 19.7578 19.5859 19.4902 19.5859Z" fill="#29646D"/>
    <path d="M29.2568 19.2289H22.5544C21.5507 19.2289 20.7366 19.0143 20.7366 18.7432V14.3724C20.7366 14.1013 21.5507 13.8867 22.5544 13.8867H29.2457C30.2494 13.8867 31.0635 14.1013 31.0635 14.3724V18.7432C31.0635 19.0143 30.2494 19.2289 29.2457 19.2289H29.2568Z" fill="#29646D"/>
    <path d="M40.2959 19.2289H33.5935C32.5898 19.2289 31.7757 19.0143 31.7757 18.7432V14.3724C31.7757 14.1013 32.5898 13.8867 33.5935 13.8867H40.2847C41.2884 13.8867 42.1025 14.1013 42.1025 14.3724V18.7432C42.1025 19.0143 41.2884 19.2289 40.2847 19.2289H40.2959Z" fill="#29646D"/>
    <path d="M51.4053 19.2289H44.7029C43.6992 19.2289 42.8851 19.0143 42.8851 18.7432V14.3724C42.8851 14.1013 43.6992 13.8867 44.7029 13.8867H51.3941C52.3978 13.8867 53.2119 14.1013 53.2119 14.3724V18.7432C53.2119 19.0143 52.3978 19.2289 51.3941 19.2289H51.4053Z" fill="#29646D"/>
    <path d="M62.3349 19.2289H55.6325C54.6288 19.2289 53.8147 19.0143 53.8147 18.7432V14.3724C53.8147 14.1013 54.6288 13.8867 55.6325 13.8867H62.3238C63.3275 13.8867 64.1416 14.1013 64.1416 14.3724V18.7432C64.1416 19.0143 63.3275 19.2289 62.3238 19.2289H62.3349Z" fill="#29646D"/>
    <path d="M72.8291 28.9982V27.4396L71.9815 26.9766L70.9444 27.1347V29.4161H72.4165C72.6395 29.4161 72.8179 29.2354 72.8291 29.0095V28.9982Z" fill="#339683"/>
    <path d="M61.2278 24.5918H21.2809L21.5263 23.8125H61.6182L61.2278 24.5918Z" fill="white"/>
    <path d="M69.9963 13.8867H71.1338V14.395H69.9963V13.8867Z" fill="#FFD040"/>
    <path d="M69.9963 25.0898H71.1338V25.598H69.9963V25.0898Z" fill="#FFD040"/>
    <path d="M21.1681 24.0391H22.3057V24.5472H21.1681V24.0391Z" fill="#FFD040"/>
    <path d="M70.5635 13.6362H13.9331L14.0224 13.207H70.5635V13.6362Z" fill="#29646D"/>
    <path d="M68.9932 18.5596H66.2051V16.8203H68.2348L68.9932 18.5596Z" fill="#339683"/>
    <path d="M67.9307 16.3253H66.2021V14.5859H67.1612L67.9307 16.3253Z" fill="#339683"/>
    <path d="M61.7669 23.5215H21.6751L21.9092 22.7422H62.1572L61.7669 23.5215Z" fill="white"/>
    <path d="M60.748 25.6659H20.8123L21.0465 24.8867H61.1494L60.748 25.6659Z" fill="white"/>
    <path d="M68.9264 29.0199L62.6589 29.1554C62.4917 29.1554 62.3578 29.0199 62.3578 28.8505V27.8792C62.3578 27.7098 62.4917 27.5742 62.6589 27.5742H68.9264C69.0937 27.5742 69.2275 27.7098 69.2275 27.8792V28.7036C69.2275 28.8617 69.0937 28.9973 68.9376 29.0086L68.9264 29.0199Z" fill="#29646D"/>
    <path d="M60.0479 29.8456H50.7693V27.1238C50.7693 26.6494 50.9589 26.1976 51.2711 25.8814L52.8325 24.368C53.1001 24.1082 53.4347 23.9727 53.7915 23.9727H57.0926C57.4495 23.9727 57.7952 24.1195 58.0628 24.3906L59.5572 25.8927C59.8694 26.2089 60.0479 26.6494 60.0479 27.1125V29.8456Z" fill="#29646D"/>
    <path d="M59.5601 29.844H51.2519V28.3531C51.2519 27.2237 51.6756 26.1621 52.4228 25.4054L52.4562 25.3716C53.1031 24.7165 53.9506 24.3438 54.8316 24.3438H56.0249C56.9171 24.3438 57.7869 24.7278 58.4449 25.4167C59.1587 26.1734 59.5713 27.2238 59.5713 28.3193V29.844H59.5601Z" fill="#339683"/>
    <path d="M55.4303 25.043L55.7872 25.1785L56.1552 25.1107L56.4786 25.314L56.8578 25.3253L57.1366 25.5851L57.5046 25.6641L57.7277 25.9691L58.0845 26.1159L58.2406 26.466L58.5641 26.6806L58.6532 27.042L58.9209 27.3131L58.9432 27.6971L59.1663 28.0133L59.1105 28.3974L59.2666 28.7475L59.1439 29.1089L59.2332 29.4815L59.0436 29.8204L59.0659 30.2044L58.8206 30.498L58.7536 30.8821L58.4637 31.1192L58.3299 31.4806L57.9953 31.6614L57.8057 31.9889L57.4377 32.1018L57.1923 32.3955L56.8132 32.4294L56.5121 32.6665L56.1329 32.6327L55.7983 32.802L55.4303 32.7004L55.0623 32.802L54.7278 32.6327L54.3486 32.6665L54.0474 32.4294L53.6683 32.3955L53.4229 32.1018L53.0549 31.9889L52.8653 31.6614L52.5308 31.4806L52.3969 31.1192L52.107 30.8821L52.0401 30.498L51.7947 30.2044L51.817 29.8204L51.6274 29.4815L51.7167 29.1089L51.594 28.7475L51.7501 28.3974L51.6943 28.0133L51.9174 27.6971L51.9397 27.3131L52.2074 27.042L52.2965 26.6806L52.62 26.466L52.7761 26.1159L53.1329 25.9691L53.356 25.6641L53.724 25.5851L54.0028 25.3253L54.382 25.314L54.7054 25.1107L55.0735 25.1785L55.4303 25.043Z" fill="#29646D"/>
    <path d="M55.4324 31.146C54.2252 31.146 53.2466 30.1549 53.2466 28.9324C53.2466 27.7098 54.2252 26.7188 55.4324 26.7188C56.6396 26.7188 57.6182 27.7098 57.6182 28.9324C57.6182 30.1549 56.6396 31.146 55.4324 31.146Z" fill="#339683"/>
    <path d="M55.4411 30.9278C54.3509 30.9278 53.4672 30.0327 53.4672 28.9287C53.4672 27.8246 54.3509 26.9297 55.4411 26.9297C56.5313 26.9297 57.415 27.8246 57.415 28.9287C57.415 30.0327 56.5313 30.9278 55.4411 30.9278Z" fill="#B8F5FF"/>
    <path d="M55.4259 29.9253C54.8839 29.9253 54.4445 29.4803 54.4445 28.9314C54.4445 28.3825 54.8839 27.9375 55.4259 27.9375C55.9679 27.9375 56.4072 28.3825 56.4072 28.9314C56.4072 29.4803 55.9679 29.9253 55.4259 29.9253Z" fill="#339683"/>
    <path d="M30.54 29.8456H21.2615V27.1238C21.2615 26.6494 21.4511 26.1976 21.7633 25.8814L23.3246 24.368C23.5922 24.1082 23.9268 23.9727 24.2837 23.9727H27.5847C27.9416 23.9727 28.2873 24.1195 28.5549 24.3906L30.0493 25.8927C30.3616 26.2089 30.54 26.6494 30.54 27.1125V29.8456Z" fill="#29646D"/>
    <path d="M30.0445 29.8405H21.7362V28.361C21.7362 27.2315 22.1599 26.1699 22.9071 25.4132L22.9406 25.3793C23.5874 24.7242 24.435 24.3516 25.316 24.3516H26.5092C27.4014 24.3516 28.2713 24.7356 28.9293 25.4245C29.643 26.1812 30.0557 27.2316 30.0557 28.3271V29.8405H30.0445Z" fill="#339683"/>
    <path d="M25.9225 25.0547L26.2793 25.1902L26.6473 25.1224L26.9708 25.3257H27.3499L27.6287 25.5855L27.9967 25.6645L28.2198 25.9808L28.5767 26.1276L28.7328 26.4665L29.0562 26.681L29.1454 27.0538L29.4131 27.3248L29.4353 27.7088L29.6584 28.025L29.6026 28.4091L29.7588 28.7592L29.6361 29.1206L29.7253 29.4933L29.5357 29.8321L29.5581 30.2161L29.3127 30.5098L29.2458 30.8825L28.9558 31.1309L28.822 31.4923L28.4874 31.673L28.2979 32.0006L27.9298 32.1135L27.6845 32.3959L27.3053 32.441L27.0042 32.6782L26.625 32.6444L26.2905 32.8137L25.9225 32.7121L25.5544 32.8137L25.2199 32.6444L24.8407 32.6782L24.5396 32.441L24.1604 32.3959L23.9151 32.1135L23.5471 32.0006L23.3575 31.673L23.0229 31.4923L22.8891 31.1309L22.5992 30.8825L22.5322 30.5098L22.2869 30.2161L22.3092 29.8321L22.1196 29.4933L22.2088 29.1206L22.0861 28.7592L22.2423 28.4091L22.1865 28.025L22.4095 27.7088L22.4318 27.3248L22.6995 27.0538L22.7887 26.681L23.1121 26.4665L23.2683 26.1276L23.6251 25.9808L23.8482 25.6645L24.2162 25.5855L24.495 25.3257H24.8742L25.1975 25.1224L25.5656 25.1902L25.9225 25.0547Z" fill="#29646D"/>
    <path d="M25.9245 31.146C24.7173 31.146 23.7387 30.1549 23.7387 28.9324C23.7387 27.7098 24.7173 26.7188 25.9245 26.7188C27.1317 26.7188 28.1104 27.7098 28.1104 28.9324C28.1104 30.1549 27.1317 31.146 25.9245 31.146Z" fill="#339683"/>
    <path d="M25.9333 30.9278C24.8432 30.9278 23.9594 30.0327 23.9594 28.9287C23.9594 27.8246 24.8432 26.9297 25.9333 26.9297C27.0235 26.9297 27.9072 27.8246 27.9072 28.9287C27.9072 30.0327 27.0235 30.9278 25.9333 30.9278Z" fill="#B8F5FF"/>
    <path d="M25.9258 29.9253C25.3838 29.9253 24.9444 29.4803 24.9444 28.9314C24.9444 28.3825 25.3838 27.9375 25.9258 27.9375C26.4678 27.9375 26.9072 28.3825 26.9072 28.9314C26.9072 29.4803 26.4678 29.9253 25.9258 29.9253Z" fill="#339683"/>
    <path d="M62.5318 24.457H68.8774C69.0621 24.457 69.2119 24.6087 69.2119 24.7958V26.3092C69.2119 26.4963 69.0621 26.6481 68.8774 26.6481H62.5318C62.347 26.6481 62.1972 26.4963 62.1972 26.3092V24.7958C62.1972 24.6087 62.347 24.457 62.5318 24.457Z" fill="#29646D"/>
    <path d="M72.001 20.0633H20.4894L20.5675 19.668H72.001V20.0633Z" fill="#29646D"/>
    <path d="M30.6963 16.131H21.1278V14.7982C21.1278 14.4707 21.3843 14.2109 21.7077 14.2109H30.1053C30.4287 14.2109 30.6852 14.4819 30.6852 14.7982V16.131H30.6963Z" fill="#339683"/>
    <path d="M41.7354 16.131H32.1668V14.7982C32.1668 14.2109 33.0925 14.2109 33.6612 14.2109H40.2298C40.8098 14.2109 41.7242 14.2109 41.7242 14.7982V16.131H41.7354Z" fill="#339683"/>
    <path d="M52.8447 16.131H43.2762V14.7982C43.2762 14.2109 44.2018 14.2109 44.7705 14.2109H51.3392C51.9191 14.2109 52.8336 14.2109 52.8336 14.7982V16.131H52.8447Z" fill="#339683"/>
    <path d="M63.7744 16.131H54.2059V14.7982C54.2059 14.2109 55.1315 14.2109 55.7003 14.2109H62.2688C62.8487 14.2109 63.7633 14.2109 63.7633 14.7982V16.131H63.7744Z" fill="#339683"/>
    <path d="M56.4932 11.1633H35.1592L34.3786 12.4734H15.5092C15.5092 12.4734 15.4758 12.4847 15.4312 12.4847C15.1301 12.4847 14.1152 12.5299 13.8587 13.1172L12.3643 22.6946V23.169C12.0521 23.2367 11.8179 23.5191 11.8179 23.8579V25.4504H12.3643V28.0254H11.5948C11.3718 28.0254 11.2045 28.2061 11.2045 28.4207V29.3807C11.2045 29.6518 11.4276 29.8777 11.6952 29.8777H13.0892V29.584H16.223L18.9998 29.8438H21.286H22.3343V30.2052L22.5685 30.4989L22.6243 30.8829L22.9142 31.12L23.0481 31.4814L23.3826 31.6622L23.5722 31.9897L23.9402 32.1026L24.1968 32.385L24.5759 32.4302L24.877 32.6673L25.2562 32.6335L25.5908 32.8028L25.9587 32.7012L26.3268 32.8028L26.6613 32.6335L27.0405 32.6673L27.3417 32.4302L27.7208 32.385L27.9773 32.1026L28.3453 31.9897L28.5349 31.6622L28.8695 31.4814L29.0033 31.12L29.2933 30.8829L29.349 30.4989L29.5943 30.2052V29.8438H30.0962H30.5757H50.8057H51.854V30.2052L52.0882 30.4989L52.1439 30.8829L52.4339 31.12L52.5677 31.4814L52.9023 31.6622L53.0918 31.9897L53.4599 32.1026L53.7164 32.385L54.0956 32.4302L54.3966 32.6673L54.7758 32.6335L55.1104 32.8028L55.4784 32.7012L55.8464 32.8028L56.181 32.6335L56.5601 32.6673L56.8613 32.4302L57.2405 32.385L57.4969 32.1026L57.865 31.9897L58.0545 31.6622L58.3891 31.4814L58.5117 31.12L58.8017 30.8829L58.8575 30.4989L59.1028 30.2052V29.8438H60.0842H62.2477L71.6935 29.4034H72.463C72.6861 29.4034 72.8645 29.2226 72.8757 28.9854V27.4269L72.1397 27.0202L72.1842 19.2612L71.5263 14.2128C71.4036 13.2866 70.623 12.7332 69.7085 12.7332H59.0471L56.5379 11.1633M56.8167 10.0339L57.0843 10.2034L59.3259 11.6038H69.6639C71.214 11.6038 72.4073 12.6203 72.5969 14.0659L73.2549 19.1144V19.1934V19.2725L73.2102 26.3539L73.3552 26.433L73.9463 26.7492V27.4269V28.9854C73.9463 29.8325 73.266 30.5215 72.4296 30.5215H71.6601L62.2589 30.9619H60.0507H59.8835V31.0409L59.8166 31.4701L59.482 31.7412L59.4262 31.7864L59.404 31.8542L59.259 32.2607L58.8798 32.464L58.824 32.4979L58.7905 32.5544L58.5676 32.9271L58.1549 33.0513L58.088 33.0739L58.0434 33.1191L57.7534 33.4466L57.3296 33.4918H57.2627L57.207 33.537L56.8613 33.808L56.4263 33.7742H56.3594L56.3036 33.7967L55.9134 33.9888L55.5007 33.8758L55.4338 33.8532L55.3668 33.8758L54.9542 33.9888L54.5639 33.7967L54.5082 33.7629H54.4413L54.0063 33.808L53.6606 33.537L53.6049 33.4918H53.538L53.1142 33.4353L52.8242 33.1078L52.7796 33.0626L52.7127 33.04L52.3 32.9158L52.077 32.5431L52.0435 32.4866L51.9878 32.4527L51.6086 32.2494L51.4636 31.8429L51.4413 31.7751L51.3856 31.7299L51.051 31.4588L50.9841 31.0296V30.9619H50.9618H30.5088H30.3527V30.9845L30.3304 31.0523L30.2635 31.4814L29.9289 31.7525L29.8731 31.7977L29.8509 31.8655L29.7059 32.272L29.3267 32.4753L29.271 32.5092L29.2375 32.5657L29.0145 32.9384L28.6018 33.0626L28.5349 33.0852L28.4903 33.1304L28.2003 33.4579L27.7765 33.5031H27.7096L27.6539 33.5483L27.3082 33.8193L26.8732 33.7854H26.8063L26.7506 33.808L26.3603 34L25.9477 33.8871L25.8807 33.8645L25.8138 33.8871L25.4011 34L25.0108 33.808L24.9551 33.7742H24.8882L24.4532 33.8193L24.1075 33.5483L24.0518 33.5031H23.9849L23.5611 33.4466L23.2711 33.1191L23.2265 33.0739L23.1596 33.0513L22.7469 32.9271L22.5239 32.5544L22.4905 32.4979L22.4347 32.464L22.0555 32.2607L21.9105 31.8542L21.8883 31.7864L21.8325 31.7412L21.4979 31.4701L21.431 31.0409V30.9732L21.4087 30.9506H18.9107H18.8549H18.7991L16.078 30.6908H14.1152V30.9845H11.606C10.725 30.9845 10.0001 30.2504 10.0001 29.3581V28.3982C10.0001 27.6753 10.502 27.0654 11.16 26.9073V26.5459H10.6135V23.8241C10.6135 23.3045 10.8254 22.8414 11.1711 22.5026L12.6655 12.9139L12.6878 12.7784L12.7435 12.6429C13.1004 11.8071 14.0483 11.3215 15.342 11.3215C15.4312 11.3215 15.4758 11.3215 15.4758 11.3215H33.6649L34.1221 10.5422L34.4456 10H56.404H56.7163L56.8167 10.0339Z" fill="white"/>
  </g>
  <defs>
    <filter id="filter0_d_1901_20754" x="0" y="0" width="83.9463" height="44" filterUnits="userSpaceOnUse" color-interpolation-filters="sRGB">
      <feFlood flood-opacity="0" result="BackgroundImageFix"/>
      <feColorMatrix in="SourceAlpha" type="matrix" values="0 0 0 0 0 0 0 0 0 0 0 0 0 0 0 0 0 0 127 0" result="hardAlpha"/>
      <feOffset/>
      <feGaussianBlur stdDeviation="5"/>
      <feComposite in2="hardAlpha" operator="out"/>
      <feColorMatrix type="matrix" values="0 0 0 0 0 0 0 0 0 0 0 0 0 0 0 0 0 0 0.5 0"/>
      <feBlend mode="normal" in2="BackgroundImageFix" result="effect1_dropShadow_1901_20754"/>
      <feBlend mode="normal" in="SourceGraphic" in2="effect1_dropShadow_1901_20754" result="shape"/>
    </filter>
  </defs>
</svg>