<svg width="24" height="24" viewBox="0 0 24 24" fill="none" xmlns="http://www.w3.org/2000/svg">
<path d="M22 17.5H20L12 3.25L4 17.5H2" stroke="white" stroke-width="2" stroke-linecap="round" stroke-linejoin="round"/>
<path d="M12 15.5C10.6195 15.5 9.5 17.291 9.5 19.5V20.5H14.5V19.5C14.5 17.291 13.3805 15.5 12 15.5Z" fill="white" stroke="white" stroke-width="2" stroke-linecap="round" stroke-linejoin="round"/>
<path d="M2 20.5H22M7.5 11.5C7.5 11.5 10 9.5 12 9.5C14 9.5 16.5 11.5 16.5 11.5M20 3L19 4.5L20 6L21 4.5L20 3ZM3.5 8.5L3 9.5L3.5 10.5L4 9.5L3.5 8.5Z" stroke="white" stroke-width="2" stroke-linecap="round" stroke-linejoin="round"/>
</svg>
