<svg width="37" height="24" viewBox="0 0 37 24" fill="none" xmlns="http://www.w3.org/2000/svg">
<rect width="37" height="24" rx="5" fill="white" fill-opacity="0.2"/>
<path d="M11.5039 6.91797C12.0195 6.92188 12.4805 7.02148 12.8867 7.2168C13.2969 7.41211 13.6172 7.68555 13.8477 8.03711C14.082 8.38477 14.1992 8.78125 14.1992 9.22656C14.1992 9.67188 14.082 10.0703 13.8477 10.4219C13.6172 10.7695 13.2969 11.041 12.8867 11.2363C12.4805 11.4277 12.0195 11.5234 11.5039 11.5234C10.9805 11.5234 10.5137 11.4277 10.1035 11.2363C9.69336 11.041 9.37305 10.7695 9.14258 10.4219C8.91211 10.0703 8.79688 9.67188 8.79688 9.22656C8.79688 8.78125 8.91211 8.38477 9.14258 8.03711C9.37305 7.68555 9.69336 7.41211 10.1035 7.2168C10.5137 7.02148 10.9805 6.92188 11.5039 6.91797ZM11.5039 7.69141C11.1602 7.69141 10.8496 7.75781 10.5723 7.89062C10.2988 8.01953 10.084 8.20117 9.92773 8.43555C9.77148 8.66602 9.69531 8.92969 9.69922 9.22656C9.69531 9.52734 9.77148 9.79492 9.92773 10.0293C10.084 10.2637 10.2988 10.4473 10.5723 10.5801C10.8496 10.709 11.1602 10.7734 11.5039 10.7734C11.8438 10.7734 12.1504 10.709 12.4238 10.5801C12.7012 10.4473 12.918 10.2637 13.0742 10.0293C13.2305 9.79492 13.3086 9.52734 13.3086 9.22656C13.3086 8.92969 13.2305 8.66602 13.0742 8.43555C12.918 8.20117 12.7012 8.01953 12.4238 7.89062C12.1504 7.75781 11.8438 7.69141 11.5039 7.69141ZM17.1523 11.8867H16.2383V6.53125H17.1523V11.8867ZM17.1523 14.8984H11.3047V16.0703H17.5273V16.8086H10.4023V14.207H16.2383V13.1289H10.3789V12.3906H17.1523V14.8984ZM27.0664 9.69531H28.6367V10.4688H27.0664V14.1953H26.1523V6.54297H27.0664V9.69531ZM27.5469 16.7266H20.5508V13.4453H21.4531V15.9531H27.5469V16.7266ZM20.2695 9.05078H23.3047V7.29297H24.2188V12.4375H19.3672V7.29297H20.2695V9.05078ZM23.3047 11.6875V9.77734H20.2695V11.6875H23.3047Z" fill="white"/>
</svg>
