<svg width="31" height="31" viewBox="0 0 31 31" fill="none" xmlns="http://www.w3.org/2000/svg">
<path d="M3.5 1.75C2.96957 1.75 2.46086 1.96071 2.08579 2.33579C1.71071 2.71086 1.5 3.21957 1.5 3.75V27.75C1.5 28.2804 1.71071 28.7891 2.08579 29.1642C2.46086 29.5393 2.96957 29.75 3.5 29.75H27.5C28.0304 29.75 28.5391 29.5393 28.9142 29.1642C29.2893 28.7891 29.5 28.2804 29.5 27.75V3.75C29.5 3.21957 29.2893 2.71086 28.9142 2.33579C28.5391 1.96071 28.0304 1.75 27.5 1.75H3.5ZM3.5 0.75H27.5C28.2956 0.75 29.0587 1.06607 29.6213 1.62868C30.1839 2.19129 30.5 2.95435 30.5 3.75V27.75C30.5 28.5456 30.1839 29.3087 29.6213 29.8713C29.0587 30.4339 28.2956 30.75 27.5 30.75H3.5C2.70435 30.75 1.94129 30.4339 1.37868 29.8713C0.81607 29.3087 0.5 28.5456 0.5 27.75L0.5 3.75C0.5 2.95435 0.81607 2.19129 1.37868 1.62868C1.94129 1.06607 2.70435 0.75 3.5 0.75Z" fill="#DBDBDB"/>
<path d="M18.2457 21.0002C18.0531 21.0004 17.8679 20.9262 17.7287 20.7931L12.4827 15.7931C12.4091 15.7231 12.3506 15.6388 12.3106 15.5455C12.2706 15.4522 12.25 15.3517 12.25 15.2502C12.25 15.1486 12.2706 15.0481 12.3106 14.9547C12.3506 14.8614 12.4091 14.7772 12.4827 14.7071L17.7287 9.70713C17.8 9.63917 17.884 9.58595 17.9759 9.55045C18.0678 9.51495 18.1657 9.49785 18.2642 9.50022C18.3627 9.50258 18.4597 9.52437 18.5498 9.56424C18.6399 9.60412 18.7212 9.66133 18.7892 9.73264C18.8571 9.80395 18.9104 9.88794 18.9459 9.97983C18.9814 10.0717 18.9984 10.1697 18.996 10.2682C18.9937 10.3666 18.9719 10.4637 18.9321 10.5537C18.8922 10.6438 18.835 10.7252 18.7637 10.7931L14.0876 15.2511L18.7637 19.7081C18.8722 19.8115 18.9473 19.9451 18.9792 20.0916C19.0111 20.2382 18.9983 20.3909 18.9425 20.5301C18.8867 20.6692 18.7906 20.7885 18.6664 20.8725C18.5422 20.9564 18.3956 21.0003 18.2457 21.0002Z" fill="#DBDBDB"/>
</svg>
