<svg width="40" height="40" viewBox="0 0 40 40" fill="none" xmlns="http://www.w3.org/2000/svg">
<path d="M32 4H8C5.79469 4 4 5.79469 4 8V32C4 34.2053 5.79469 36 8 36H32C34.2053 36 36 34.2053 36 32V8C36 5.79469 34.2053 4 32 4ZM33.3333 32C33.3333 32.736 32.7346 33.3333 32 33.3333H8C7.26531 33.3333 6.66669 32.736 6.66669 32V8C6.66669 7.26531 7.26538 6.66669 8 6.66669H32C32.7347 6.66669 33.3333 7.26538 33.3333 8V32Z" fill="white"/>
<path d="M13.226 11.4937C13.1593 11.3203 13.066 11.187 12.946 11.0537C12.8793 11.0003 12.8127 10.947 12.746 10.8937C12.666 10.8403 12.586 10.8003 12.506 10.7737C12.426 10.7337 12.346 10.707 12.266 10.6937C11.9993 10.6403 11.7327 10.667 11.4927 10.7737C11.3327 10.8403 11.186 10.9337 11.0527 11.0537C10.9327 11.187 10.8394 11.3203 10.7727 11.4937C10.706 11.6537 10.666 11.827 10.666 12.0003C10.666 12.1737 10.706 12.347 10.7727 12.507C10.8394 12.6803 10.9327 12.8137 11.0527 12.947C11.306 13.187 11.6527 13.3337 11.9994 13.3337C12.0794 13.3337 12.1727 13.3204 12.2661 13.307C12.3461 13.2937 12.4261 13.267 12.5061 13.227C12.5861 13.2003 12.6661 13.1603 12.7461 13.107C12.8128 13.0537 12.8794 13.0003 12.9461 12.947C13.1861 12.6937 13.3328 12.347 13.3328 12.0003C13.3326 11.827 13.2926 11.6537 13.226 11.4937Z" fill="white"/>
<path d="M28 10.667H17.3333C16.5973 10.667 16 11.2643 16 12.0003C16 12.7363 16.5973 13.3336 17.3333 13.3336H28C28.736 13.3336 29.3333 12.7363 29.3333 12.0003C29.3333 11.2643 28.736 10.667 28 10.667Z" fill="white"/>
<path d="M13.306 19.7328C13.2927 19.6528 13.266 19.5728 13.226 19.4928C13.1993 19.4128 13.1593 19.3328 13.106 19.2528C13.0527 19.1861 12.9993 19.1195 12.946 19.0528C12.8127 18.9328 12.666 18.8395 12.506 18.7728C12.186 18.6395 11.8127 18.6395 11.4927 18.7728C11.3327 18.8395 11.186 18.9328 11.0527 19.0528C10.9994 19.1195 10.946 19.1861 10.8927 19.2528C10.8394 19.3328 10.7994 19.4128 10.7727 19.4928C10.7327 19.5728 10.706 19.6528 10.6927 19.7328C10.6794 19.8261 10.666 19.9195 10.666 19.9995C10.666 20.3462 10.8127 20.6928 11.0527 20.9462C11.306 21.1862 11.6527 21.3329 11.9994 21.3329C12.3461 21.3329 12.6927 21.1862 12.9461 20.9462C13.1861 20.6929 13.3328 20.3462 13.3328 19.9995C13.3326 19.9195 13.3193 19.8262 13.306 19.7328Z" fill="white"/>
<path d="M28 18.667H17.3333C16.5973 18.667 16 19.2643 16 20.0003C16 20.7363 16.5973 21.3336 17.3333 21.3336H28C28.736 21.3336 29.3333 20.7363 29.3333 20.0003C29.3333 19.2643 28.736 18.667 28 18.667Z" fill="white"/>
<path d="M13.226 27.4934C13.1593 27.3201 13.066 27.1867 12.946 27.0534C12.5727 26.6921 11.986 26.5734 11.4927 26.7734C11.3327 26.8401 11.186 26.9334 11.0527 27.0534C10.9327 27.1867 10.8394 27.3334 10.7727 27.4934C10.706 27.6534 10.666 27.8267 10.666 28.0001C10.666 28.3601 10.7993 28.6934 11.0527 28.9468C11.306 29.1988 11.6394 29.3335 11.9994 29.3335C12.3594 29.3335 12.6927 29.1988 12.9461 28.9468C13.1994 28.6934 13.3328 28.3601 13.3328 28.0001C13.3326 27.8268 13.306 27.6534 13.226 27.4934Z" fill="white"/>
<path d="M28 26.667H17.3333C16.5973 26.667 16 27.263 16 28.0003C16 28.7376 16.5973 29.3336 17.3333 29.3336H28C28.736 29.3336 29.3333 28.7376 29.3333 28.0003C29.3333 27.263 28.736 26.667 28 26.667Z" fill="white"/>
</svg>
