<svg width="34" height="44" viewBox="0 0 34 44" fill="none" xmlns="http://www.w3.org/2000/svg">
<path d="M17.3926 1L17.7588 1.00391C21.5382 1.09225 25.1637 2.52813 27.9551 5.05371C30.8369 7.66108 32.6195 11.2405 32.9434 15.084V15.085C33.2896 19.2215 32.0402 23.3269 29.457 26.5918L29.2031 26.9053L20.4941 37.3701H20.4932L17.7686 40.6406L17 41.5615L16.2314 40.6406L13.5059 37.3701L4.79883 26.9053C2.04304 23.5922 0.699729 19.3551 1.05664 15.085V15.084C1.38047 11.2405 3.16312 7.66108 6.04492 5.05371C8.92633 2.44674 12.6967 1.00125 16.6074 1H17.3926Z" fill="#F12124" stroke="white" stroke-width="2"/>
<path d="M9 16.3958C9 14.1691 9.88456 12.0336 11.4591 10.4591C13.0336 8.88456 15.1691 8 17.3958 8C19.6225 8 21.7581 8.88456 23.3326 10.4591C24.9071 12.0336 25.7917 14.1691 25.7917 16.3958C25.7917 18.6225 24.9071 20.7581 23.3326 22.3326C21.7581 23.9071 19.6225 24.7917 17.3958 24.7917C15.1691 24.7917 13.0336 23.9071 11.4591 22.3326C9.88456 20.7581 9 18.6225 9 16.3958Z" fill="white"/>
</svg>
