<svg width="24" height="18" viewBox="0 0 24 18" fill="none" xmlns="http://www.w3.org/2000/svg">
<path d="M16.5 6.75471C16.5 6.95362 16.421 7.14439 16.2803 7.28504C16.1397 7.42569 15.9489 7.50471 15.75 7.50471H8.25C8.05109 7.50471 7.86032 7.42569 7.71967 7.28504C7.57902 7.14439 7.5 6.95362 7.5 6.75471C7.5 6.5558 7.57902 6.36503 7.71967 6.22438C7.86032 6.08373 8.05109 6.00471 8.25 6.00471H15.75C15.9489 6.00471 16.1397 6.08373 16.2803 6.22438C16.421 6.36503 16.5 6.5558 16.5 6.75471ZM15.75 9.00471H8.25C8.05109 9.00471 7.86032 9.08373 7.71967 9.22438C7.57902 9.36503 7.5 9.5558 7.5 9.75471C7.5 9.95362 7.57902 10.1444 7.71967 10.285C7.86032 10.4257 8.05109 10.5047 8.25 10.5047H15.75C15.9489 10.5047 16.1397 10.4257 16.2803 10.285C16.421 10.1444 16.5 9.95362 16.5 9.75471C16.5 9.5558 16.421 9.36503 16.2803 9.22438C16.1397 9.08373 15.9489 9.00471 15.75 9.00471ZM24 6.75471V9.00471C24 9.80036 23.6839 10.5634 23.1213 11.126C22.5587 11.6886 21.7956 12.0047 21 12.0047H20.5134C19.8394 13.486 18.4706 14.7638 16.4606 15.7697C15.0872 16.4432 13.6332 16.9382 12.1341 17.2425C12.0454 17.2588 11.9546 17.2588 11.8659 17.2425C10.3668 16.9382 8.91281 16.4432 7.53937 15.7697C5.53125 14.7638 4.16062 13.486 3.48656 12.0047H3C2.20435 12.0047 1.44129 11.6886 0.87868 11.126C0.316071 10.5634 0 9.80036 0 9.00471V6.75471C0 5.95906 0.316071 5.196 0.87868 4.63339C1.44129 4.07078 2.20435 3.75471 3 3.75471H3.07969C3.15058 3.54019 3.26902 3.34445 3.42616 3.18212C3.5833 3.01978 3.77508 2.89504 3.98719 2.81721L11.4872 0.0900227C11.8185 -0.0300076 12.1815 -0.0300076 12.5128 0.0900227L20.0128 2.81721C20.2249 2.89504 20.4167 3.01978 20.5738 3.18212C20.731 3.34445 20.8494 3.54019 20.9203 3.75471H21C21.7956 3.75471 22.5587 4.07078 23.1213 4.63339C23.6839 5.196 24 5.95906 24 6.75471ZM3.05156 10.5047C3.01739 10.2562 3.00016 10.0056 3 9.75471V5.25471C2.60218 5.25471 2.22064 5.41275 1.93934 5.69405C1.65804 5.97536 1.5 6.35689 1.5 6.75471V9.00471C1.5 9.40253 1.65804 9.78407 1.93934 10.0654C2.22064 10.3467 2.60218 10.5047 3 10.5047H3.05156ZM19.5 9.75471V4.2319L12 1.50471L4.5 4.2319V9.75471C4.5 13.9735 10.9772 15.5222 12 15.7397C13.0209 15.5222 19.5 13.9735 19.5 9.75471ZM22.5 6.75471C22.5 6.35689 22.342 5.97536 22.0607 5.69405C21.7794 5.41275 21.3978 5.25471 21 5.25471V9.75471C20.9998 10.0056 20.9826 10.2562 20.9484 10.5047H21C21.3978 10.5047 21.7794 10.3467 22.0607 10.0654C22.342 9.78407 22.5 9.40253 22.5 9.00471V6.75471Z" fill="white"/>
</svg>
