<svg xmlns="http://www.w3.org/2000/svg" width="28" height="30" viewBox="0 0 28 30" fill="none">
  <path d="M27.494 7.18408H0.506024C0.371818 7.18408 0.243109 7.2374 0.148211 7.33229C0.0533131 7.42719 0 7.5559 0 7.69011V23.3156C0 23.4498 0.0533131 23.5785 0.148211 23.6734C0.243109 23.7683 0.371818 23.8216 0.506024 23.8216H11.4513V26.183H8.77727C8.37857 26.1835 7.99634 26.3421 7.71446 26.6241C7.43259 26.9061 7.27411 27.2884 7.27382 27.6871V28.6862C7.27382 28.8204 7.32713 28.9491 7.42203 29.044C7.51693 29.1389 7.64564 29.1922 7.77984 29.1922H20.219C20.3532 29.1922 20.482 29.1389 20.5769 29.044C20.6718 28.9491 20.7251 28.8204 20.7251 28.6862V27.6887C20.7243 27.2897 20.5653 26.9072 20.2829 26.6253C20.0005 26.3433 19.6179 26.1849 19.2188 26.1847H16.547V23.8233H27.494C27.6282 23.8233 27.7569 23.77 27.8518 23.6751C27.9467 23.5802 28 23.4515 28 23.3173V7.69011C28 7.5559 27.9467 7.42719 27.8518 7.33229C27.7569 7.2374 27.6282 7.18408 27.494 7.18408ZM19.713 27.6887V28.1818H8.28587V27.6887C8.28587 27.5584 8.33762 27.4333 8.42976 27.3411C8.5219 27.2488 8.64689 27.1969 8.77727 27.1968H19.2188C19.2836 27.1966 19.3477 27.2092 19.4076 27.2339C19.4675 27.2585 19.5219 27.2947 19.5678 27.3404C19.6137 27.3861 19.6501 27.4404 19.6751 27.5001C19.7 27.5599 19.7129 27.624 19.713 27.6887ZM15.5349 26.1836H12.4634V23.8222H15.5349V26.1836ZM26.988 22.8101H1.01205V8.19613H26.988V22.8101Z" fill="#696A6A"/>
  <path d="M2.54704 21.7722H25.4531C25.5873 21.7722 25.716 21.7189 25.8109 21.624C25.9058 21.5291 25.9591 21.4004 25.9591 21.2662V9.7277C25.9591 9.5935 25.9058 9.46479 25.8109 9.36989C25.716 9.27499 25.5873 9.22168 25.4531 9.22168H2.54704C2.41283 9.22168 2.28412 9.27499 2.18923 9.36989C2.09433 9.46479 2.04102 9.5935 2.04102 9.7277V21.2662C2.04102 21.4004 2.09433 21.5291 2.18923 21.624C2.28412 21.7189 2.41283 21.7722 2.54704 21.7722ZM3.05306 10.2337H24.947V20.7602H3.05306V10.2337Z" fill="#696A6A"/>
  <path d="M8.75264 2.72611C8.75264 3.03853 8.63759 3.38267 8.43582 3.73977C8.23547 4.09434 7.9631 4.43796 7.682 4.74237C7.402 5.04559 7.12064 5.30208 6.90879 5.48299C6.86632 5.51926 6.82669 5.55237 6.79061 5.58213C6.75456 5.55238 6.71501 5.51924 6.67257 5.48299C6.46071 5.30207 6.17937 5.04561 5.89935 4.74237C5.61825 4.43795 5.34589 4.09435 5.14554 3.73977C4.94376 3.38266 4.82871 3.03854 4.82871 2.72611C4.82875 1.64261 5.70712 0.764225 6.79061 0.764205C7.87413 0.764205 8.75261 1.6426 8.75264 2.72611ZM9.5169 2.72611C9.51687 1.22051 8.29622 -5.62668e-05 6.79061 -5.62668e-05C5.28503 -3.62396e-05 4.06449 1.22052 4.06445 2.72611C4.06445 3.21867 4.24245 3.6951 4.48017 4.11581C4.71931 4.53903 5.03296 4.93065 5.33785 5.26083C5.64383 5.59219 5.94859 5.86973 6.17625 6.06415C6.29033 6.16158 6.38576 6.2388 6.45327 6.29203C6.48702 6.31865 6.5139 6.33933 6.53263 6.35361C6.54199 6.36075 6.54934 6.36639 6.55452 6.37028C6.55707 6.37219 6.55913 6.37365 6.56062 6.37475C6.56135 6.3753 6.56202 6.37578 6.56248 6.37612C6.56271 6.37629 6.56294 6.3765 6.5631 6.37662L6.56323 6.37674C6.56331 6.37681 6.56342 6.37685 6.79061 6.06962L6.56348 6.37687L6.79061 6.54492L7.01788 6.37687L6.79061 6.06962C7.01013 6.36646 7.01767 6.37646 7.018 6.37674L7.01825 6.37662C7.01841 6.3765 7.01864 6.37629 7.01887 6.37612C7.01933 6.37578 7.01989 6.37529 7.02061 6.37475C7.02209 6.37365 7.02416 6.37219 7.02671 6.37028C7.03189 6.36639 7.03924 6.36074 7.0486 6.35361C7.06733 6.33933 7.09419 6.31866 7.12796 6.29203C7.19548 6.2388 7.291 6.1616 7.40511 6.06415C7.63276 5.86973 7.93741 5.59218 8.24338 5.26083C8.54829 4.93064 8.86203 4.53905 9.10118 4.11581C9.3389 3.6951 9.5169 3.21867 9.5169 2.72611Z" fill="#696A6A"/>
  <path d="M22.7844 18.1439H16.6744V12.6126C16.6744 12.0474 17.1327 11.5891 17.6979 11.5891H21.7608C22.3261 11.5891 22.7844 12.0474 22.7844 12.6126V18.1439ZM23.5487 12.6126C23.5486 11.6253 22.7481 10.8249 21.7608 10.8249H17.6979C16.7106 10.8249 15.9102 11.6253 15.9102 12.6126V18.9082H23.5487V12.6126Z" fill="#696A6A"/>
  <path d="M23.1662 14.9639V14.1996H16.292V14.9639H23.1662Z" fill="#696A6A"/>
  <path d="M22.7164 20.0215V18.5302H21.9521V20.0215H22.7164Z" fill="#696A6A"/>
  <path d="M17.5074 20.0215V18.5302H16.7432V20.0215H17.5074Z" fill="#696A6A"/>
  <path d="M21.5592 17.0947V16.0085H20.7949V17.0947H21.5592Z" fill="#696A6A"/>
  <path d="M18.6637 17.0947V16.0085H17.8994V17.0947H18.6637Z" fill="#696A6A"/>
  <path d="M4.70117 15.4104V14.9042C4.70117 12.9344 6.29797 11.3376 8.26772 11.3376H10.82C12.1926 11.3376 13.3054 10.2248 13.3054 8.85214C13.3054 7.47946 12.1927 6.36667 10.82 6.36667H8.75359V5.34766H10.82C12.7554 5.34766 14.3245 6.91668 14.3245 8.85214C14.3245 10.7876 12.7554 12.3566 10.82 12.3566H8.26772C6.86076 12.3566 5.72019 13.4972 5.72019 14.9042V15.4104C5.72019 16.8174 6.86076 17.958 8.26772 17.958H14.7639V18.977H8.26772C6.29797 18.977 4.70117 17.3802 4.70117 15.4104Z" fill="#696A6A"/>
  <circle cx="6.73985" cy="2.54893" r="0.764261" fill="#696A6A"/>
</svg>