<svg width="35" height="32" viewBox="0 0 35 32" fill="none" xmlns="http://www.w3.org/2000/svg">
<path d="M3.26493 25.5048C4.64772 25.5048 5.80004 26.3498 6.26097 27.579H8.75768V23.6227H8.1431C3.64903 23.6227 7.62939e-06 19.9736 7.62939e-06 15.4796C7.62939e-06 10.9855 3.64903 7.33647 8.1431 7.33647C8.29674 7.33647 8.4888 7.33647 8.64244 7.33647C9.37225 3.11128 13.0213 0 17.4001 0C21.7021 0 25.3896 3.1881 26.1194 7.33647C26.3498 7.33647 26.5803 7.29806 26.8108 7.29806C31.3048 7.29806 34.9539 10.9471 34.9539 15.4796C34.9539 19.9736 31.3048 23.6227 26.8108 23.6227H26.1962V27.579H28.6929C29.1538 26.3882 30.3446 25.5048 31.6889 25.5048C33.4558 25.5048 34.9154 26.9644 34.9154 28.7313C34.9154 30.4982 33.4558 31.9578 31.6889 31.9578C30.3061 31.9578 29.1538 31.1128 28.6929 29.8836H25.0439C24.3909 29.8836 23.8915 29.3843 23.8915 28.7313V22.4703C23.8915 21.8173 24.3909 21.318 25.0439 21.318H26.8108C30.0373 21.318 32.6492 18.7061 32.6492 15.4796C32.6492 12.2531 30.0373 9.64112 26.8108 9.64112C26.6187 9.64112 26.4267 9.64112 26.2346 9.67953C26.1578 10.755 25.8505 11.8305 25.3512 12.7908C25.1591 13.2133 24.7366 13.4438 24.3141 13.4438C24.1604 13.4438 23.9684 13.4054 23.8147 13.3286C23.2386 13.0597 23.0081 12.3683 23.277 11.7921C23.7379 10.9087 23.93 9.90999 23.93 8.91131C23.93 8.8729 23.93 8.79608 23.93 8.75767C23.8531 5.22387 20.8955 2.38147 17.4001 2.38147C14.1352 2.38147 11.4464 4.72453 10.9471 7.87422C11.7153 8.1431 12.4451 8.56561 13.1365 9.06495C13.6359 9.44906 13.7511 10.1789 13.367 10.6782C12.9829 11.1776 12.2531 11.2928 11.7537 10.9087C11.0623 10.4093 10.3325 10.0252 9.48748 9.83317C9.06496 9.75635 8.64244 9.67953 8.21992 9.67953C4.99342 9.67953 2.38148 12.2915 2.38148 15.518C2.38148 18.7445 4.99342 21.3564 8.21992 21.3564H9.98682H12.906C13.559 21.3564 14.0584 21.8558 14.0584 22.5087C14.0584 23.1617 13.559 23.6611 12.906 23.6611H11.1391V28.7697C11.1391 29.4227 10.6398 29.922 9.98682 29.922H6.33779C5.87686 31.1128 4.68613 31.9962 3.34175 31.9962C1.57485 31.9962 0.115242 30.5366 0.115242 28.7697C0.115242 27.0028 1.45962 25.5048 3.26493 25.5048ZM31.6889 29.6532C32.1883 29.6532 32.6108 29.2306 32.6108 28.7313C32.6108 28.232 32.1883 27.8094 31.6889 27.8094C31.1896 27.8094 30.7671 28.232 30.7671 28.7313C30.7671 29.2306 31.1896 29.6532 31.6889 29.6532ZM3.26493 29.6532C3.76427 29.6532 4.18679 29.2306 4.18679 28.7313C4.18679 28.232 3.76427 27.8094 3.26493 27.8094C2.76559 27.8094 2.34307 28.232 2.34307 28.7313C2.34307 29.2306 2.76559 29.6532 3.26493 29.6532Z" fill="white"/>
<path d="M16.3203 25.7363V22.4714C16.3203 21.8184 16.8197 21.3191 17.4726 21.3191H20.3919C21.0448 21.3191 21.5442 21.8184 21.5442 22.4714C21.5442 23.1244 21.0448 23.6237 20.3919 23.6237H18.625V25.7363C19.8157 26.1973 20.6992 27.388 20.6992 28.7324C20.6992 30.4993 19.2395 31.9589 17.4726 31.9589C15.7057 31.9589 14.2461 30.4993 14.2461 28.7324C14.2461 27.3496 15.1296 26.1973 16.3203 25.7363ZM17.4726 29.6542C17.972 29.6542 18.3945 29.2317 18.3945 28.7324C18.3945 28.233 17.972 27.8105 17.4726 27.8105C16.9733 27.8105 16.5508 28.233 16.5508 28.7324C16.5508 29.2317 16.9733 29.6542 17.4726 29.6542Z" fill="white"/>
</svg>
