<svg width="121" height="15" viewBox="0 0 121 15" fill="none" xmlns="http://www.w3.org/2000/svg">
<rect y="6.48438" width="28" height="2" rx="1" fill="#CFFF40"/>
<rect x="0.361111" y="6.84549" width="27.2778" height="1.27778" rx="0.638889" stroke="white" stroke-opacity="0.1" stroke-width="0.722222"/>
<path d="M42 2.85938V10.0195H36.8438V2.85938H42ZM38.3438 4.03125V8.83594H40.5469V4.03125H38.3438ZM45.2461 1.89844V12.5859H43.7344V1.89844H45.2461ZM50.1094 4.58203C50.1094 6.30469 50.5898 8.08594 52.043 9.02344L51.2344 10.1836C50.3145 9.62695 49.7285 8.71289 49.3945 7.61719C49.0078 8.82422 48.3691 9.83203 47.4023 10.418L46.4883 9.31641C48.0703 8.33203 48.6562 6.45703 48.6562 4.65234V2.8125H50.1094V4.58203ZM55.9336 1.89844V12.5625H54.5039V1.89844H55.9336ZM53.6953 2.05078V12.0703H52.3008V6.71484H50.918V5.49609H52.3008V2.05078H53.6953ZM62.5664 2.76562V4.72266H64.5586V1.91016H66.0469V9.66797H64.5586V5.90625H62.5664V7.89844H57.5039V2.76562H62.5664ZM58.9922 3.94922V6.72656H61.1016V3.94922H58.9922ZM66.3047 11.1797V12.375H58.9688V8.92969H60.4688V11.1797H66.3047ZM71.5664 4.80469C71.5664 6.52734 72.4453 8.36719 74.2383 9.11719L73.4297 10.2891C72.1699 9.75586 71.3027 8.69531 70.8281 7.39453C70.3418 8.80664 69.457 9.97852 68.2031 10.5586L67.3477 9.375C69.1172 8.58984 70.0312 6.60938 70.0312 4.80469V4.14844H67.7695V2.92969H73.793V4.14844H71.5664V4.80469ZM76.3594 1.89844V12.5625H74.8477V1.89844H76.3594ZM78.5508 8.25C78.5625 6.03516 79.1602 4.19531 80.2383 2.63672H81.1289C80.332 3.79688 79.5938 6.16406 79.5938 8.25C79.5938 10.3359 80.332 12.7148 81.1289 13.875H80.2383C79.1602 12.3047 78.5625 10.4648 78.5508 8.25ZM82.5117 11.4844V3H85.3945C87.3867 3 88.2891 4.18359 88.2891 5.69531C88.2891 7.19531 87.3867 8.40234 85.4062 8.40234H83.5664V11.4844H82.5117ZM83.5664 7.46484H85.3594C86.707 7.46484 87.2461 6.70312 87.2461 5.69531C87.2461 4.67578 86.707 3.9375 85.3477 3.9375H83.5664V7.46484ZM89.7656 3H91.0312L93.8906 9.98438H93.9961L96.8555 3H98.1211V11.4844H97.125V5.07422H97.043L94.4062 11.4844H93.4688L90.832 5.07422H90.7617V11.4844H89.7656V3ZM103.512 6.78516V7.71094H99.7969V6.78516H103.512ZM108.047 3V11.4844H106.98V4.10156H106.934L104.871 5.47266V4.40625L106.98 3H108.047ZM113.086 11.6016C111.199 11.6016 110.121 10.0195 110.121 7.24219C110.121 4.48828 111.223 2.88281 113.086 2.88281C114.949 2.88281 116.051 4.48828 116.051 7.24219C116.051 10.0195 114.961 11.6016 113.086 11.6016ZM113.086 10.6641C114.305 10.6641 115.02 9.43359 115.02 7.24219C115.02 5.05078 114.305 3.79688 113.086 3.79688C111.867 3.79688 111.141 5.05078 111.141 7.24219C111.141 9.43359 111.855 10.6641 113.086 10.6641ZM119.684 8.25C119.672 10.4648 119.074 12.3047 117.996 13.875H117.105C117.902 12.7148 118.641 10.3359 118.641 8.25C118.641 6.16406 117.902 3.79688 117.105 2.63672H117.996C119.074 4.19531 119.672 6.03516 119.684 8.25Z" fill="#A6A6A6"/>
</svg>
