<svg width="74" height="24" viewBox="0 0 74 24" fill="none" xmlns="http://www.w3.org/2000/svg">
<path d="M0 12C0 5.37258 5.37258 0 12 0H62C68.6274 0 74 5.37258 74 12C74 18.6274 68.6274 24 62 24H12C5.37258 24 0 18.6274 0 12Z" fill="#696A6A"/>
<path d="M21.8477 14.3359H17.0312V7.5625H21.8477V14.3359ZM17.9336 13.5859H20.9453V8.30078H17.9336V13.5859ZM25.0117 16.9727H24.0859V6.53125H25.0117V16.9727ZM29.8867 9.49609C29.8867 10.0508 29.9746 10.6055 30.1504 11.1602C30.3262 11.7148 30.5781 12.2207 30.9062 12.6777C31.2383 13.1348 31.6289 13.4961 32.0781 13.7617L31.5508 14.4766C31.0625 14.1797 30.6387 13.7715 30.2793 13.252C29.9238 12.7285 29.6504 12.1406 29.459 11.4883C29.2637 12.1914 28.9766 12.8242 28.5977 13.3867C28.2188 13.9492 27.7734 14.3867 27.2617 14.6992L26.6758 14.0078C27.1445 13.7344 27.5547 13.3613 27.9062 12.8887C28.2578 12.4121 28.5273 11.8828 28.7148 11.3008C28.9023 10.7148 28.9961 10.125 28.9961 9.53125V7.51562H29.8867V9.49609ZM35.7227 16.9492H34.832V6.53125H35.7227V16.9492ZM33.5664 16.4219H32.6992V11.0547H30.9297V10.2695H32.6992V6.75391H33.5664V16.4219ZM42.4375 9.44922H44.875V6.54297H45.8008V14.1484H44.875V10.1992H42.4375V12.2734H37.6562V7.44531H42.4375V9.44922ZM38.5703 11.5352H41.5352V8.20703H38.5703V11.5352ZM46.0938 16.7266H39.1094V13.4453H40.0352V15.9531H46.0938V16.7266ZM51.2617 9.73047C51.2617 10.3047 51.3887 10.877 51.6426 11.4473C51.8965 12.0137 52.2383 12.5195 52.668 12.9648C53.1016 13.4062 53.5742 13.7383 54.0859 13.9609L53.5703 14.6875C52.957 14.4062 52.4043 13.9824 51.9121 13.416C51.4199 12.8457 51.0527 12.2031 50.8105 11.4883C50.5684 12.2539 50.2012 12.9473 49.709 13.5684C49.2207 14.1855 48.6797 14.6445 48.0859 14.9453L47.5352 14.2188C48.0273 13.9805 48.4863 13.6211 48.9121 13.1406C49.3418 12.6602 49.6855 12.1191 49.9434 11.5176C50.2012 10.9121 50.332 10.3164 50.3359 9.73047V8.37109H47.875V7.60938H53.7461V8.37109H51.2617V9.73047ZM56.125 16.9492H55.1992V6.53125H56.125V16.9492Z" fill="white"/>
</svg>
