<svg width="64" height="64" viewBox="0 0 64 64" fill="none" xmlns="http://www.w3.org/2000/svg">
<mask id="mask0_1865_19258" style="mask-type:luminance" maskUnits="userSpaceOnUse" x="4" y="5" width="56" height="54">
<path d="M4.33203 5H59.332V59H4.33203V5Z" fill="white"/>
</mask>
<g mask="url(#mask0_1865_19258)">
<path d="M39.125 40.4375C39.125 41.2141 38.4954 41.8438 37.7188 41.8438C36.9421 41.8438 36.3125 41.2141 36.3125 40.4375C36.3125 39.6609 36.9421 39.0312 37.7188 39.0312C38.4954 39.0312 39.125 39.6609 39.125 40.4375Z" fill="white"/>
<path d="M27.7813 23.5625C27.7813 24.3391 27.1516 24.9688 26.375 24.9688C25.5984 24.9688 24.9688 24.3391 24.9688 23.5625C24.9688 22.7859 25.5984 22.1562 26.375 22.1562C27.1516 22.1562 27.7813 22.7859 27.7813 23.5625Z" fill="white"/>
<path d="M53.1875 17.8437C53.1875 18.6204 52.5579 19.25 51.7813 19.25C51.0046 19.25 50.375 18.6204 50.375 17.8437C50.375 17.0671 51.0046 16.4375 51.7813 16.4375C52.5579 16.4375 53.1875 17.0671 53.1875 17.8437Z" fill="white"/>
<path d="M13.625 46.0625C13.625 46.8391 12.9954 47.4688 12.2188 47.4688C11.4421 47.4688 10.8125 46.8391 10.8125 46.0625C10.8125 45.2859 11.4421 44.6562 12.2188 44.6562C12.9954 44.6562 13.625 45.2859 13.625 46.0625Z" fill="white"/>
<path d="M30.5938 32C30.5938 32.7766 29.9641 33.4062 29.1875 33.4062C28.4109 33.4062 27.7812 32.7766 27.7812 32C27.7812 31.2234 28.4109 30.5937 29.1875 30.5937C29.9641 30.5937 30.5938 31.2234 30.5938 32Z" fill="white"/>
<path d="M47.5625 34.8125C47.5625 35.5891 46.9329 36.2188 46.1563 36.2188C45.3796 36.2188 44.75 35.5891 44.75 34.8125C44.75 34.0359 45.3796 33.4062 46.1563 33.4062C46.9329 33.4062 47.5625 34.0359 47.5625 34.8125Z" fill="white"/>
<path d="M22.1563 29.1875C22.1563 29.9641 21.5266 30.5938 20.75 30.5938C19.9734 30.5938 19.3438 29.9641 19.3438 29.1875C19.3438 28.4109 19.9734 27.7812 20.75 27.7812C21.5266 27.7812 22.1563 28.4109 22.1563 29.1875Z" fill="white"/>
<path d="M15.0313 12.2187C15.0313 13.7721 13.772 15.0312 12.2188 15.0312C10.6655 15.0312 9.40625 13.7721 9.40625 12.2187C9.40625 10.6654 10.6655 9.40625 12.2188 9.40625C13.772 9.40625 15.0313 10.6654 15.0313 12.2187Z" stroke="white" stroke-width="3.5" stroke-miterlimit="10" stroke-linecap="round" stroke-linejoin="round"/>
<path d="M54.5938 51.7812C54.5938 53.3346 53.3345 54.5938 51.7813 54.5938C50.228 54.5938 48.9688 53.3346 48.9688 51.7812C48.9688 50.2279 50.228 48.9687 51.7813 48.9687C53.3345 48.9687 54.5938 50.2279 54.5938 51.7812Z" stroke="white" stroke-width="3.5" stroke-miterlimit="10" stroke-linecap="round" stroke-linejoin="round"/>
<path d="M43.3438 29.1875C43.3438 30.7408 42.0845 32 40.5313 32C38.978 32 37.7188 30.7408 37.7188 29.1875C37.7188 27.6342 38.978 26.375 40.5313 26.375C42.0845 26.375 43.3438 27.6342 43.3438 29.1875Z" stroke="white" stroke-width="3.5" stroke-miterlimit="10" stroke-linecap="round" stroke-linejoin="round"/>
<path d="M29.1875 40.4375C29.1875 41.9908 27.9283 43.25 26.375 43.25C24.8218 43.25 23.5625 41.9908 23.5625 40.4375C23.5625 38.8842 24.8218 37.625 26.375 37.625C27.9283 37.625 29.1875 38.8842 29.1875 40.4375Z" stroke="white" stroke-width="3.5" stroke-miterlimit="10" stroke-linecap="round" stroke-linejoin="round"/>
<path d="M54.5938 33.4059C54.5938 37.65 51.6396 41.2004 47.7273 42.0119C46.5143 49.6425 37.756 53.1473 31.8795 48.6972C26.7365 54.8977 16.693 51.0161 16.693 42.9064C16.693 41.4741 9.40625 41.0505 9.40625 33.4059C9.40625 25.7612 16.693 25.3376 16.693 23.9053C16.693 15.7956 26.7365 11.914 31.8795 18.1145C37.756 13.6644 46.5143 17.1692 47.7273 24.7998C51.6396 25.6113 54.5938 29.1617 54.5938 33.4059Z" stroke="white" stroke-width="3.5" stroke-miterlimit="10" stroke-linecap="round" stroke-linejoin="round"/>
</g>
</svg>
