<svg width="74" height="24" viewBox="0 0 74 24" fill="none" xmlns="http://www.w3.org/2000/svg">
<path d="M0 12C0 5.37258 5.37258 0 12 0H62C68.6274 0 74 5.37258 74 12C74 18.6274 68.6274 24 62 24H12C5.37258 24 0 18.6274 0 12Z" fill="url(#paint0_linear_1885_26491)"/>
<path d="M22 14.5352H16.8438V7.375H22V14.5352ZM18.3438 13.3516H20.5469V8.54688H18.3438V13.3516ZM25.2461 17.1016H23.7344V6.41406H25.2461V17.1016ZM30.1094 9.09766C30.1094 10.0508 30.2617 10.9199 30.5664 11.7051C30.8711 12.4902 31.3633 13.1016 32.043 13.5391L31.2344 14.6992C30.375 14.1797 29.7598 13.3262 29.3887 12.1387C29.1895 12.7637 28.9258 13.3164 28.5977 13.7969C28.2695 14.2734 27.8711 14.6523 27.4023 14.9336L26.4883 13.832C27.2344 13.3672 27.7812 12.7207 28.1289 11.8926C28.4805 11.0605 28.6562 10.1523 28.6562 9.16797V7.32812H30.1094V9.09766ZM35.9336 17.0781H34.5039V6.41406H35.9336V17.0781ZM33.6953 16.5859H32.3008V11.2305H30.918V10.0117H32.3008V6.56641H33.6953V16.5859ZM42.5664 9.23828H44.5586V6.42578H46.0469V14.1836H44.5586V10.4219H42.5664V12.4141H37.5039V7.28125H42.5664V9.23828ZM38.9922 11.2422H41.1016V8.46484H38.9922V11.2422ZM46.3047 16.8906H38.9688V13.4453H40.4688V15.6953H46.3047V16.8906ZM51.5664 9.32031C51.5664 9.91016 51.666 10.4902 51.8652 11.0605C52.0684 11.627 52.3711 12.1367 52.7734 12.5898C53.1758 13.043 53.6641 13.3906 54.2383 13.6328L53.4297 14.8047C52.8164 14.5469 52.291 14.168 51.8535 13.668C51.416 13.168 51.0723 12.584 50.8223 11.916C50.5762 12.6426 50.2305 13.2812 49.7852 13.832C49.3398 14.3789 48.8125 14.793 48.2031 15.0742L47.3477 13.8906C47.918 13.6367 48.4043 13.2676 48.8066 12.7832C49.2129 12.2988 49.5176 11.7559 49.7207 11.1543C49.9277 10.5488 50.0312 9.9375 50.0312 9.32031V8.66406H47.7695V7.44531H53.793V8.66406H51.5664V9.32031ZM56.3594 17.0781H54.8477V6.41406H56.3594V17.0781Z" fill="black"/>
<defs>
<linearGradient id="paint0_linear_1885_26491" x1="37" y1="-7.15256e-07" x2="37" y2="24" gradientUnits="userSpaceOnUse">
<stop stop-color="#FDF106"/>
<stop offset="1" stop-color="#FFD040"/>
</linearGradient>
</defs>
</svg>
