<svg width="84" height="24" viewBox="0 0 84 24" fill="none" xmlns="http://www.w3.org/2000/svg">
<path d="M0 12C0 5.37258 5.37258 0 12 0H72C78.6274 0 84 5.37258 84 12C84 18.6274 78.6274 24 72 24H12C5.37258 24 0 18.6274 0 12Z" fill="#696A6A"/>
<path d="M25.9609 15.6367H16.4219V14.8633H20.7227V12.4727H21.625V14.8633H25.9609V15.6367ZM25.0469 8.95703H21.6484C21.6484 9.48438 21.8184 9.96875 22.1582 10.4102C22.498 10.8516 22.9512 11.2207 23.5176 11.5176C24.0879 11.8105 24.7109 12.0117 25.3867 12.1211L25.0352 12.8477C24.1641 12.6914 23.3828 12.4043 22.6914 11.9863C22 11.5645 21.4941 11.0391 21.1738 10.4102C20.8574 11.0391 20.3535 11.5645 19.6621 11.9863C18.9707 12.4043 18.1875 12.6914 17.3125 12.8477L16.9492 12.1211C17.6289 12.0117 18.2539 11.8105 18.8242 11.5176C19.3984 11.2207 19.8555 10.8516 20.1953 10.4102C20.5391 9.96875 20.7109 9.48438 20.7109 8.95703H17.3125V8.19531H20.7227V6.75391H21.625V8.19531H25.0469V8.95703ZM32.2188 14.3359H27.4023V7.5625H32.2188V14.3359ZM28.3047 13.5859H31.3164V8.30078H28.3047V13.5859ZM35.3828 16.9727H34.457V6.53125H35.3828V16.9727ZM40.2578 9.49609C40.2578 10.0508 40.3457 10.6055 40.5215 11.1602C40.6973 11.7148 40.9492 12.2207 41.2773 12.6777C41.6094 13.1348 42 13.4961 42.4492 13.7617L41.9219 14.4766C41.4336 14.1797 41.0098 13.7715 40.6504 13.252C40.2949 12.7285 40.0215 12.1406 39.8301 11.4883C39.6348 12.1914 39.3477 12.8242 38.9688 13.3867C38.5898 13.9492 38.1445 14.3867 37.6328 14.6992L37.0469 14.0078C37.5156 13.7344 37.9258 13.3613 38.2773 12.8887C38.6289 12.4121 38.8984 11.8828 39.0859 11.3008C39.2734 10.7148 39.3672 10.125 39.3672 9.53125V7.51562H40.2578V9.49609ZM46.0938 16.9492H45.2031V6.53125H46.0938V16.9492ZM43.9375 16.4219H43.0703V11.0547H41.3008V10.2695H43.0703V6.75391H43.9375V16.4219ZM52.8086 9.44922H55.2461V6.54297H56.1719V14.1484H55.2461V10.1992H52.8086V12.2734H48.0273V7.44531H52.8086V9.44922ZM48.9414 11.5352H51.9062V8.20703H48.9414V11.5352ZM56.4648 16.7266H49.4805V13.4453H50.4062V15.9531H56.4648V16.7266ZM61.6328 9.73047C61.6328 10.3047 61.7598 10.877 62.0137 11.4473C62.2676 12.0137 62.6094 12.5195 63.0391 12.9648C63.4727 13.4062 63.9453 13.7383 64.457 13.9609L63.9414 14.6875C63.3281 14.4062 62.7754 13.9824 62.2832 13.416C61.791 12.8457 61.4238 12.2031 61.1816 11.4883C60.9395 12.2539 60.5723 12.9473 60.0801 13.5684C59.5918 14.1855 59.0508 14.6445 58.457 14.9453L57.9062 14.2188C58.3984 13.9805 58.8574 13.6211 59.2832 13.1406C59.7129 12.6602 60.0566 12.1191 60.3145 11.5176C60.5723 10.9121 60.7031 10.3164 60.707 9.73047V8.37109H58.2461V7.60938H64.1172V8.37109H61.6328V9.73047ZM66.4961 16.9492H65.5703V6.53125H66.4961V16.9492Z" fill="white"/>
</svg>
