<svg xmlns="http://www.w3.org/2000/svg" width="64" height="64" viewBox="0 0 64 64" fill="none">
  <path d="M32 19.4375C33.0681 19.4375 34.1096 19.7715 34.9785 20.3926C35.7883 20.9714 36.4097 21.773 36.7705 22.6973C37.0527 22.6493 37.3385 22.6248 37.625 22.625C38.9045 22.6266 40.1377 23.1064 41.082 23.9697C41.9818 24.7925 42.5565 25.9075 42.709 27.1133C43.7691 27.3935 44.7127 28.0088 45.3965 28.8701C46.1167 29.7773 46.5057 30.9033 46.5 32.0615L46.4961 32.2783C46.4558 33.3604 46.072 34.4039 45.3965 35.2549C44.7128 36.1161 43.769 36.7305 42.709 37.0107C42.5567 38.2169 41.9821 39.3323 41.082 40.1553C40.1377 41.0186 38.9045 41.4984 37.625 41.5C37.3384 41.5002 37.0528 41.4748 36.7705 41.4268C36.4098 42.3514 35.7885 43.1534 34.9785 43.7324C34.1096 44.3535 33.0681 44.6875 32 44.6875C30.9319 44.6875 29.8904 44.3535 29.0215 43.7324C28.2113 43.1533 27.5883 42.3517 27.2275 41.4268C26.9459 41.4745 26.6609 41.5001 26.375 41.5C25.0955 41.4984 23.8623 41.0186 22.918 40.1553C22.0174 39.3318 21.4419 38.2158 21.29 37.0088C20.2334 36.7236 19.2938 36.1086 18.6113 35.249C17.8919 34.3427 17.5 33.2196 17.5 32.0625C17.5 30.9054 17.8919 29.7823 18.6113 28.876C19.2938 28.0163 20.2333 27.4004 21.29 27.1152C21.4421 25.9086 22.0176 24.793 22.918 23.9697C23.8623 23.1064 25.0955 22.6266 26.375 22.625C26.6609 22.6249 26.946 22.6495 27.2275 22.6973C27.5883 21.7727 28.2115 20.9715 29.0215 20.3926C29.8904 19.7715 30.9319 19.4375 32 19.4375ZM32 21.4375C31.2549 21.4375 30.5343 21.7043 29.9688 22.1895C29.4034 22.6745 29.0304 23.3458 28.917 24.082C28.894 24.2312 28.8376 24.3738 28.752 24.498C28.6663 24.6223 28.5531 24.7253 28.4219 24.7998C28.2906 24.8742 28.1438 24.918 27.9932 24.9277C27.8426 24.9375 27.6915 24.9133 27.5518 24.8564C27.0775 24.663 26.5623 24.5892 26.0527 24.6416C25.5434 24.694 25.0548 24.8706 24.6299 25.1562C24.2049 25.4422 23.8558 25.829 23.6152 26.2812C23.3748 26.7334 23.2496 27.2379 23.25 27.75L23.2539 27.8213L23.2588 27.9023V27.9053C23.2719 28.1637 23.1846 28.4171 23.0146 28.6123C22.8447 28.8075 22.6055 28.9295 22.3477 28.9521C21.5701 29.0209 20.8464 29.3784 20.3193 29.9541C19.7923 30.5298 19.5 31.282 19.5 32.0625C19.5 32.843 19.7923 33.5952 20.3193 34.1709C20.8464 34.7466 21.5701 35.1041 22.3477 35.1729C22.6055 35.1955 22.8447 35.3175 23.0146 35.5127C23.1846 35.7079 23.2718 35.9613 23.2588 36.2197V36.2227L23.2539 36.3037V36.3047C23.2516 36.341 23.25 36.3564 23.25 36.375C23.2496 36.887 23.3748 37.3917 23.6152 37.8438C23.8558 38.296 24.2049 38.6828 24.6299 38.9688C25.0548 39.2545 25.5434 39.431 26.0527 39.4834C26.5623 39.5358 27.0775 39.462 27.5518 39.2686C27.6915 39.2117 27.8426 39.1875 27.9932 39.1973C28.1438 39.207 28.2906 39.2508 28.4219 39.3252C28.553 39.3996 28.6653 39.5029 28.751 39.627C28.8367 39.7512 28.894 39.8937 28.917 40.043C29.0304 40.7792 29.4034 41.4505 29.9688 41.9355C30.5343 42.4207 31.2549 42.6875 32 42.6875C32.7451 42.6875 33.4657 42.4207 34.0312 41.9355C34.5966 41.4505 34.9696 40.7792 35.083 40.043C35.106 39.8937 35.1623 39.7512 35.248 39.627C35.3337 39.5027 35.4469 39.3997 35.5781 39.3252C35.7095 39.2507 35.8562 39.207 36.0068 39.1973C36.1574 39.1875 36.3085 39.2117 36.4482 39.2686C36.9225 39.462 37.4377 39.5358 37.9473 39.4834C38.4566 39.431 38.9453 39.2545 39.3701 38.9688C39.7951 38.6828 40.1432 38.296 40.3838 37.8438C40.6243 37.3916 40.7504 36.8872 40.75 36.375C40.75 36.3564 40.7484 36.341 40.7461 36.3047V36.3037L40.7412 36.2227V36.2197C40.7282 35.9613 40.8154 35.7079 40.9854 35.5127C41.1553 35.3175 41.3945 35.1955 41.6523 35.1729C42.4298 35.1041 43.1536 34.7466 43.6807 34.1709C44.2077 33.5952 44.5 32.843 44.5 32.0625C44.5 31.282 44.2077 30.5298 43.6807 29.9541C43.1536 29.3784 42.4298 29.0209 41.6523 28.9521C41.3945 28.9295 41.1553 28.8075 40.9854 28.6123C40.8154 28.4171 40.7281 28.1637 40.7412 27.9053V27.9023L40.7461 27.8213C40.7484 27.7846 40.75 27.7687 40.75 27.75L40.7441 27.5586C40.7172 27.1126 40.5943 26.677 40.3838 26.2812C40.1432 25.829 39.7951 25.4422 39.3701 25.1562C38.9453 24.8705 38.4566 24.694 37.9473 24.6416C37.4377 24.5892 36.9225 24.663 36.4482 24.8564C36.3085 24.9133 36.1575 24.9375 36.0068 24.9277C35.8562 24.918 35.7095 24.8743 35.5781 24.7998C35.4469 24.7253 35.3337 24.6223 35.248 24.498C35.1624 24.3738 35.106 24.2312 35.083 24.082C34.9696 23.3458 34.5966 22.6745 34.0312 22.1895C33.4657 21.7043 32.7451 21.4375 32 21.4375Z" fill="white" stroke="white" stroke-width="0.5"/>
  <path d="M13.833 42.25C13.833 41.805 13.701 41.37 13.4538 41C13.2066 40.63 12.8552 40.3416 12.444 40.1713C12.0329 40.001 11.5805 39.9564 11.1441 40.0432C10.7076 40.1301 10.3067 40.3443 9.99202 40.659C9.67735 40.9737 9.46306 41.3746 9.37624 41.811C9.28942 42.2475 9.33398 42.6999 9.50428 43.111C9.67458 43.5222 9.96297 43.8736 10.333 44.1208C10.703 44.368 11.138 44.5 11.583 44.5C12.1795 44.4993 12.7515 44.2621 13.1733 43.8403C13.5951 43.4185 13.8324 42.8465 13.833 42.25Z" fill="white"/>
  <path d="M17.6501 16.4699C18.0355 16.2474 18.3462 15.9156 18.543 15.5165C18.7399 15.1173 18.8139 14.6688 18.7558 14.2276C18.6977 13.7864 18.5101 13.3724 18.2167 13.0378C17.9233 12.7032 17.5373 12.4632 17.1074 12.348C16.6776 12.2328 16.2232 12.2477 15.8018 12.3907C15.3804 12.5338 15.0109 12.7986 14.74 13.1516C14.4691 13.5046 14.309 13.9301 14.2799 14.3742C14.2508 14.8182 14.354 15.2609 14.5765 15.6463C14.8754 16.1626 15.3668 16.5393 15.943 16.6937C16.5192 16.8481 17.1331 16.7676 17.6501 16.4699Z" fill="white"/>
  <path d="M37.9601 33.0221C38.3455 32.7996 38.6563 32.4678 38.8531 32.0687C39.0499 31.6696 39.124 31.2211 39.0659 30.7799C39.0078 30.3387 38.8202 29.9246 38.5268 29.59C38.2334 29.2555 37.8473 29.0154 37.4175 28.9002C36.9876 28.7851 36.5333 28.7999 36.1119 28.943C35.6905 29.086 35.321 29.3508 35.0501 29.7038C34.7792 30.0569 34.6191 30.4823 34.59 30.9264C34.5608 31.3705 34.6641 31.8132 34.8866 32.1986C35.1854 32.7148 35.6768 33.0915 36.2531 33.2459C36.8293 33.4003 37.4432 33.3198 37.9601 33.0221Z" fill="white"/>
  <path d="M21.3332 48.6668C21.3332 48.0076 21.1377 47.3631 20.7714 46.8149C20.4051 46.2668 19.8845 45.8395 19.2754 45.5872C18.6664 45.3349 17.9961 45.2689 17.3495 45.3975C16.7029 45.5262 16.109 45.8436 15.6428 46.3098C15.1766 46.776 14.8592 47.3699 14.7306 48.0165C14.6019 48.6631 14.6679 49.3334 14.9202 49.9424C15.1725 50.5515 15.5998 51.0721 16.1479 51.4384C16.6961 51.8047 17.3406 52.0002 17.9998 52.0002C18.8836 51.9992 19.7309 51.6477 20.3558 51.0228C20.9807 50.3979 21.3322 49.5506 21.3332 48.6668Z" fill="white"/>
  <path d="M15.845 26.1721C16.416 25.8425 16.8763 25.3509 17.1679 24.7596C17.4595 24.1684 17.5692 23.5039 17.4832 22.8503C17.3971 22.1966 17.1192 21.5832 16.6845 21.0875C16.2498 20.5919 15.6779 20.2362 15.0411 20.0656C14.4043 19.895 13.7312 19.917 13.1069 20.1289C12.4826 20.3408 11.9352 20.7331 11.5338 21.2561C11.1325 21.7792 10.8953 22.4095 10.8522 23.0673C10.809 23.7252 10.962 24.3811 11.2916 24.952C11.7343 25.7169 12.4624 26.2749 13.316 26.5036C14.1697 26.7324 15.0792 26.6131 15.845 26.1721Z" fill="white"/>
  <path d="M32.9097 37.8736C33.3604 37.6133 33.7238 37.2253 33.954 36.7585C34.1842 36.2917 34.2708 35.7672 34.2029 35.2512C34.135 34.7352 33.9155 34.2509 33.5724 33.8596C33.2292 33.4683 32.7777 33.1876 32.275 33.0529C31.7723 32.9181 31.2409 32.9355 30.7481 33.1028C30.2553 33.2701 29.8231 33.5798 29.5063 33.9927C29.1894 34.4056 29.0022 34.9032 28.9681 35.4225C28.9341 35.9419 29.0548 36.4597 29.315 36.9104C29.6645 37.5142 30.2393 37.9547 30.9132 38.1353C31.5871 38.3159 32.3051 38.2217 32.9097 37.8736Z" fill="white"/>
  <path d="M12 50.6665C12 49.8754 11.7654 49.102 11.3259 48.4442C10.8864 47.7864 10.2616 47.2737 9.53073 46.971C8.79983 46.6682 7.99557 46.589 7.21964 46.7434C6.44372 46.8977 5.73099 47.2787 5.17158 47.8381C4.61217 48.3975 4.2312 49.1102 4.07686 49.8861C3.92252 50.6621 4.00174 51.4663 4.30449 52.1972C4.60724 52.9281 5.11992 53.5529 5.77772 53.9924C6.43552 54.4319 7.20888 54.6665 8 54.6665C9.06051 54.6653 10.0773 54.2435 10.8271 53.4937C11.577 52.7438 11.9988 51.727 12 50.6665Z" fill="white"/>
  <path d="M9.44703 19.0898C10.1322 18.6943 10.6846 18.1044 11.0345 17.3949C11.3844 16.6853 11.5161 15.888 11.4128 15.1036C11.3095 14.3193 10.976 13.5831 10.4544 12.9883C9.93277 12.3935 9.24647 11.9668 8.48231 11.762C7.71814 11.5573 6.91041 11.5837 6.16127 11.838C5.41213 12.0923 4.75523 12.563 4.27362 13.1907C3.79201 13.8183 3.50734 14.5747 3.4556 15.3641C3.40386 16.1535 3.58737 16.9406 3.98293 17.6257C4.51419 18.5436 5.38785 19.2132 6.41222 19.4877C7.4366 19.7622 8.52802 19.6191 9.44703 19.0898Z" fill="white"/>
  <path d="M28.644 33.7161C28.9479 33.5406 29.193 33.2789 29.3482 32.9642C29.5034 32.6494 29.5618 32.2957 29.516 31.9477C29.4702 31.5998 29.3223 31.2732 29.0909 31.0094C28.8595 30.7455 28.555 30.5562 28.216 30.4653C27.877 30.3745 27.5187 30.3862 27.1864 30.499C26.854 30.6119 26.5626 30.8207 26.349 31.0991C26.1353 31.3775 26.009 31.7131 25.9861 32.0633C25.9631 32.4135 26.0445 32.7626 26.22 33.0666C26.4557 33.4738 26.8433 33.7708 27.2977 33.8926C27.7521 34.0143 28.2363 33.9509 28.644 33.7161Z" fill="white"/>
  <path d="M51.5 22.5781C51.5 23.0231 51.632 23.4581 51.8792 23.8282C52.1264 24.1982 52.4778 24.4866 52.889 24.6569C53.3001 24.8271 53.7525 24.8717 54.189 24.7849C54.6254 24.6981 55.0263 24.4838 55.341 24.1691C55.6557 23.8544 55.8699 23.4535 55.9568 23.0171C56.0436 22.5806 55.999 22.1282 55.8287 21.7171C55.6584 21.306 55.37 20.9546 55 20.7073C54.63 20.4601 54.195 20.3281 53.75 20.3281C53.1535 20.3288 52.5815 20.566 52.1597 20.9879C51.7379 21.4097 51.5007 21.9816 51.5 22.5781Z" fill="white"/>
  <path d="M47.6829 48.3583C47.2975 48.5808 46.9868 48.9125 46.79 49.3117C46.5931 49.7108 46.5191 50.1593 46.5772 50.6005C46.6353 51.0417 46.8229 51.4558 47.1163 51.7903C47.4097 52.1249 47.7957 52.365 48.2256 52.4801C48.6554 52.5953 49.1098 52.5804 49.5312 52.4374C49.9526 52.2944 50.3221 52.0296 50.593 51.6765C50.8639 51.3235 51.024 50.898 51.0531 50.454C51.0822 50.0099 50.979 49.5672 50.7565 49.1818C50.4577 48.6655 49.9662 48.2889 49.39 48.1345C48.8138 47.9801 48.1999 48.0606 47.6829 48.3583Z" fill="white"/>
  <path d="M43.9998 16.1613C43.9998 16.8206 44.1953 17.465 44.5616 18.0132C44.9279 18.5614 45.4485 18.9886 46.0576 19.2409C46.6666 19.4932 47.3369 19.5592 47.9835 19.4306C48.6301 19.302 49.224 18.9845 49.6902 18.5183C50.1564 18.0521 50.4738 17.4582 50.6025 16.8116C50.7311 16.165 50.6651 15.4948 50.4128 14.8857C50.1605 14.2766 49.7332 13.756 49.1851 13.3897C48.6369 13.0235 47.9924 12.828 47.3332 12.828C46.4494 12.8289 45.6021 13.1804 44.9772 13.8053C44.3523 14.4303 44.0008 15.2775 43.9998 16.1613Z" fill="white"/>
  <path d="M49.4855 38.656C48.9146 38.9857 48.4542 39.4772 48.1626 40.0685C47.8711 40.6598 47.7613 41.3242 47.8474 41.9779C47.9335 42.6315 48.2114 43.2449 48.6461 43.7406C49.0808 44.2363 49.6527 44.5919 50.2895 44.7625C50.9263 44.9332 51.5994 44.9111 52.2237 44.6992C52.848 44.4873 53.3954 44.095 53.7967 43.572C54.1981 43.0489 54.4353 42.4186 54.4784 41.7608C54.5215 41.1029 54.3686 40.4471 54.039 39.8761C53.5963 39.1112 52.8682 38.5532 52.0146 38.3245C51.1609 38.0957 50.2514 38.215 49.4855 38.656Z" fill="white"/>
  <path d="M53.333 14.1616C53.333 14.9527 53.5676 15.7261 54.0071 16.3839C54.4467 17.0417 55.0714 17.5544 55.8023 17.8571C56.5332 18.1599 57.3374 18.2391 58.1134 18.0848C58.8893 17.9304 59.602 17.5495 60.1614 16.99C60.7208 16.4306 61.1018 15.7179 61.2561 14.942C61.4105 14.1661 61.3313 13.3618 61.0285 12.6309C60.7258 11.9 60.2131 11.2753 59.5553 10.8357C58.8975 10.3962 58.1241 10.1616 57.333 10.1616C56.2725 10.1628 55.2558 10.5846 54.5059 11.3345C53.756 12.0844 53.3342 13.1011 53.333 14.1616Z" fill="white"/>
  <path d="M55.886 45.7383C55.2008 46.1339 54.6484 46.7237 54.2985 47.4332C53.9486 48.1428 53.8169 48.9401 53.9202 49.7245C54.0235 50.5089 54.357 51.245 54.8786 51.8398C55.4002 52.4346 56.0865 52.8613 56.8507 53.0661C57.6149 53.2709 58.4226 53.2444 59.1717 52.9901C59.9209 52.7358 60.5778 52.2651 61.0594 51.6374C61.541 51.0098 61.8257 50.2534 61.8774 49.464C61.9292 48.6746 61.7456 47.8875 61.3501 47.2024C60.8188 46.2846 59.9452 45.6149 58.9208 45.3404C57.8964 45.066 56.805 45.209 55.886 45.7383Z" fill="white"/>
</svg>