<svg width="136" height="15" viewBox="0 0 136 15" fill="none" xmlns="http://www.w3.org/2000/svg">
<rect y="6.48438" width="28" height="2" rx="1" fill="#FFD040"/>
<rect x="0.361111" y="6.84549" width="27.2778" height="1.27778" rx="0.638889" stroke="white" stroke-opacity="0.1" stroke-width="0.722222"/>
<path d="M46.0781 10.125V11.3438H36.3164V10.125H40.4414V8.03906H41.9297V10.125H46.0781ZM45.2227 3.36328V4.55859H41.9648C42.0879 5.74219 43.2949 6.94336 45.7266 7.24219L45.1875 8.40234C43.2773 8.16211 41.9004 7.37109 41.1914 6.26953C40.4707 7.37109 39.1055 8.16211 37.1953 8.40234L36.6445 7.24219C39.0762 6.94336 40.2832 5.74219 40.418 4.55859H37.1602V3.36328H40.4414V2.02734H41.9297V3.36328H45.2227ZM52.3711 2.85938V10.0195H47.2148V2.85938H52.3711ZM48.7148 4.03125V8.83594H50.918V4.03125H48.7148ZM55.6172 1.89844V12.5859H54.1055V1.89844H55.6172ZM60.4805 4.58203C60.4805 6.30469 60.9609 8.08594 62.4141 9.02344L61.6055 10.1836C60.6855 9.62695 60.0996 8.71289 59.7656 7.61719C59.3789 8.82422 58.7402 9.83203 57.7734 10.418L56.8594 9.31641C58.4414 8.33203 59.0273 6.45703 59.0273 4.65234V2.8125H60.4805V4.58203ZM66.3047 1.89844V12.5625H64.875V1.89844H66.3047ZM64.0664 2.05078V12.0703H62.6719V6.71484H61.2891V5.49609H62.6719V2.05078H64.0664ZM72.9375 2.76562V4.72266H74.9297V1.91016H76.418V9.66797H74.9297V5.90625H72.9375V7.89844H67.875V2.76562H72.9375ZM69.3633 3.94922V6.72656H71.4727V3.94922H69.3633ZM76.6758 11.1797V12.375H69.3398V8.92969H70.8398V11.1797H76.6758ZM81.9375 4.80469C81.9375 6.52734 82.8164 8.36719 84.6094 9.11719L83.8008 10.2891C82.541 9.75586 81.6738 8.69531 81.1992 7.39453C80.7129 8.80664 79.8281 9.97852 78.5742 10.5586L77.7188 9.375C79.4883 8.58984 80.4023 6.60938 80.4023 4.80469V4.14844H78.1406V2.92969H84.1641V4.14844H81.9375V4.80469ZM86.7305 1.89844V12.5625H85.2188V1.89844H86.7305ZM88.9219 8.25C88.9336 6.03516 89.5312 4.19531 90.6094 2.63672H91.5C90.7031 3.79688 89.9648 6.16406 89.9648 8.25C89.9648 10.3359 90.7031 12.7148 91.5 13.875H90.6094C89.5312 12.3047 88.9336 10.4648 88.9219 8.25ZM92.8828 11.4844V3H95.7656C97.7578 3 98.6602 4.18359 98.6602 5.69531C98.6602 7.19531 97.7578 8.40234 95.7773 8.40234H93.9375V11.4844H92.8828ZM93.9375 7.46484H95.7305C97.0781 7.46484 97.6172 6.70312 97.6172 5.69531C97.6172 4.67578 97.0781 3.9375 95.7188 3.9375H93.9375V7.46484ZM100.137 3H101.402L104.262 9.98438H104.367L107.227 3H108.492V11.4844H107.496V5.07422H107.414L104.777 11.4844H103.84L101.203 5.07422H101.133V11.4844H100.137V3ZM113.883 6.78516V7.71094H110.168V6.78516H113.883ZM115.031 11.4844L115.02 10.7109L117.914 7.66406C118.922 6.59766 119.402 6.02344 119.402 5.23828C119.402 4.37109 118.664 3.79688 117.715 3.79688C116.707 3.79688 116.062 4.44141 116.062 5.39062H115.066C115.055 3.89062 116.215 2.88281 117.75 2.88281C119.285 2.88281 120.387 3.91406 120.387 5.23828C120.387 6.1875 119.941 6.92578 118.441 8.47266L116.496 10.4766V10.5469H120.539V11.4844H115.031ZM122.801 11.5547C122.391 11.5547 122.039 11.2148 122.051 10.793C122.039 10.3828 122.391 10.043 122.801 10.043C123.211 10.043 123.551 10.3828 123.551 10.793C123.551 11.2148 123.211 11.5547 122.801 11.5547ZM127.723 11.6016C126.188 11.6016 125.027 10.6523 124.969 9.35156H125.988C126.07 10.1133 126.809 10.6758 127.723 10.6758C128.824 10.6758 129.621 9.86719 129.621 8.80078C129.621 7.69922 128.789 6.89062 127.652 6.87891C126.938 6.86719 126.387 7.08984 126.07 7.64062H125.051L125.648 3H130.242V3.9375H126.527L126.211 6.42188H126.293C126.668 6.12891 127.242 5.92969 127.84 5.92969C129.457 5.92969 130.652 7.125 130.652 8.77734C130.652 10.418 129.41 11.6016 127.723 11.6016ZM134.344 8.25C134.332 10.4648 133.734 12.3047 132.656 13.875H131.766C132.562 12.7148 133.301 10.3359 133.301 8.25C133.301 6.16406 132.562 3.79688 131.766 2.63672H132.656C133.734 4.19531 134.332 6.03516 134.344 8.25Z" fill="#A6A6A6"/>
</svg>
