<svg width="84" height="24" viewBox="0 0 84 24" fill="none" xmlns="http://www.w3.org/2000/svg">
<path d="M0 12C0 5.37258 5.37258 0 12 0H72C78.6274 0 84 5.37258 84 12C84 18.6274 78.6274 24 72 24H12C5.37258 24 0 18.6274 0 12Z" fill="url(#paint0_linear_1885_28084)"/>
<path d="M26.0781 15.8594H16.3164V14.6406H20.4414V12.5547H21.9297V14.6406H26.0781V15.8594ZM25.2227 9.07422H21.9648C22.0078 9.48438 22.1758 9.87695 22.4688 10.252C22.7617 10.623 23.1836 10.9434 23.7344 11.2129C24.2852 11.4824 24.9492 11.6641 25.7266 11.7578L25.1875 12.918C24.25 12.8008 23.4395 12.5566 22.7559 12.1855C22.0723 11.8145 21.5488 11.3477 21.1855 10.7852C20.8223 11.3477 20.3008 11.8145 19.6211 12.1855C18.9414 12.5566 18.1328 12.8008 17.1953 12.918L16.6445 11.7578C17.4219 11.6641 18.0859 11.4824 18.6367 11.2129C19.1875 10.9434 19.6094 10.623 19.9023 10.252C20.1992 9.87695 20.3711 9.48438 20.418 9.07422H17.1602V7.87891H20.4414V6.54297H21.9297V7.87891H25.2227V9.07422ZM32.3711 14.5352H27.2148V7.375H32.3711V14.5352ZM28.7148 13.3516H30.918V8.54688H28.7148V13.3516ZM35.6172 17.1016H34.1055V6.41406H35.6172V17.1016ZM40.4805 9.09766C40.4805 10.0508 40.6328 10.9199 40.9375 11.7051C41.2422 12.4902 41.7344 13.1016 42.4141 13.5391L41.6055 14.6992C40.7461 14.1797 40.1309 13.3262 39.7598 12.1387C39.5605 12.7637 39.2969 13.3164 38.9688 13.7969C38.6406 14.2734 38.2422 14.6523 37.7734 14.9336L36.8594 13.832C37.6055 13.3672 38.1523 12.7207 38.5 11.8926C38.8516 11.0605 39.0273 10.1523 39.0273 9.16797V7.32812H40.4805V9.09766ZM46.3047 17.0781H44.875V6.41406H46.3047V17.0781ZM44.0664 16.5859H42.6719V11.2305H41.2891V10.0117H42.6719V6.56641H44.0664V16.5859ZM52.9375 9.23828H54.9297V6.42578H56.418V14.1836H54.9297V10.4219H52.9375V12.4141H47.875V7.28125H52.9375V9.23828ZM49.3633 11.2422H51.4727V8.46484H49.3633V11.2422ZM56.6758 16.8906H49.3398V13.4453H50.8398V15.6953H56.6758V16.8906ZM61.9375 9.32031C61.9375 9.91016 62.0371 10.4902 62.2363 11.0605C62.4395 11.627 62.7422 12.1367 63.1445 12.5898C63.5469 13.043 64.0352 13.3906 64.6094 13.6328L63.8008 14.8047C63.1875 14.5469 62.6621 14.168 62.2246 13.668C61.7871 13.168 61.4434 12.584 61.1934 11.916C60.9473 12.6426 60.6016 13.2812 60.1562 13.832C59.7109 14.3789 59.1836 14.793 58.5742 15.0742L57.7188 13.8906C58.2891 13.6367 58.7754 13.2676 59.1777 12.7832C59.584 12.2988 59.8887 11.7559 60.0918 11.1543C60.2988 10.5488 60.4023 9.9375 60.4023 9.32031V8.66406H58.1406V7.44531H64.1641V8.66406H61.9375V9.32031ZM66.7305 17.0781H65.2188V6.41406H66.7305V17.0781Z" fill="black"/>
<defs>
<linearGradient id="paint0_linear_1885_28084" x1="42" y1="-7.15256e-07" x2="42" y2="24" gradientUnits="userSpaceOnUse">
<stop stop-color="#FDF106"/>
<stop offset="1" stop-color="#FFD040"/>
</linearGradient>
</defs>
</svg>
