<svg xmlns="http://www.w3.org/2000/svg" width="24" height="31" viewBox="0 0 24 31" fill="none">
  <path d="M16.4277 0.5L23.5 6.6875V29.9619H0.5V0.5H16.4277Z" stroke="#696A6A"/>
  <path d="M22.2174 7.8436L16.4578 2.08399C16.3055 1.93175 16.099 1.84619 15.8837 1.84619H2.75819C2.3098 1.84619 1.94629 2.2097 1.94629 2.65804V27.8037C1.94629 28.2521 2.3098 28.6156 2.75813 28.6156H21.6433C22.0916 28.6156 22.4551 28.2521 22.4551 27.8037V8.4177C22.4552 8.20234 22.3697 7.9959 22.2174 7.8436ZM16.6955 4.61808L19.6833 7.60586H16.6955V4.61808ZM3.57003 26.9919V3.46993H15.0718V8.4177C15.0718 8.86609 15.4353 9.22955 15.8836 9.22955H20.8314V26.9919H3.57003Z" fill="#696A6A"/>
  <path d="M9.0971 12.7541C8.37789 12.6486 8.39551 12.6643 8.37108 12.6155L8.07189 12.0062C7.97181 11.806 7.6905 11.8057 7.59032 12.0062L7.29113 12.6155C7.26791 12.6619 7.29852 12.6465 6.56511 12.7541C6.3499 12.7849 6.25916 13.0502 6.41916 13.2102C6.95488 13.7338 6.93486 13.6988 6.92626 13.7501L6.81318 14.4178C6.77465 14.6335 7.00138 14.8056 7.19991 14.7023L7.8019 14.3849C7.85139 14.3602 7.83021 14.3633 8.4732 14.7023C8.67236 14.8059 8.89836 14.633 8.85993 14.4178C8.73889 13.7032 8.72945 13.7237 8.76871 13.6845L9.243 13.2102C9.40966 13.0514 9.30842 12.7843 9.0971 12.7541Z" fill="#696A6A"/>
  <path d="M9.0971 17.8381C8.37789 17.7326 8.39551 17.7483 8.37108 17.6995L8.07189 17.0902C7.97181 16.89 7.6905 16.8897 7.59032 17.0902L7.29113 17.6995C7.26791 17.7459 7.29852 17.7305 6.56511 17.8381C6.3499 17.8688 6.25916 18.1342 6.41916 18.2942C6.95488 18.8178 6.93486 18.7828 6.92626 18.8341L6.81318 19.5018C6.77465 19.7175 7.00138 19.8896 7.19991 19.7863L7.8019 19.4689C7.85139 19.4442 7.83021 19.4473 8.4732 19.7863C8.67236 19.8899 8.89836 19.717 8.85993 19.5018C8.73889 18.7872 8.72945 18.8077 8.76871 18.7684L9.243 18.2942C9.40966 18.1354 9.30842 17.8683 9.0971 17.8381Z" fill="#696A6A"/>
  <path d="M9.0971 22.9226C8.37789 22.817 8.39551 22.8328 8.37108 22.7839L8.07189 22.1746C7.97181 21.9745 7.6905 21.9742 7.59032 22.1746L7.29113 22.7839C7.26791 22.8304 7.29852 22.8149 6.56511 22.9226C6.3499 22.9533 6.25916 23.2186 6.41916 23.3786C6.95488 23.9022 6.93486 23.8672 6.92626 23.9186L6.81318 24.5862C6.77465 24.802 7.00138 24.974 7.19991 24.8708L7.8019 24.5534C7.85129 24.5287 7.8289 24.5311 8.4732 24.8708C8.67236 24.9743 8.89836 24.8014 8.85993 24.5862C8.73889 23.8716 8.72945 23.8922 8.76871 23.8529L9.243 23.3786C9.40966 23.2199 9.30842 22.9528 9.0971 22.9226Z" fill="#696A6A"/>
  <path d="M17.2528 12.4834H11.262C10.8137 12.4834 10.4502 12.8469 10.4502 13.2952C10.4502 13.7436 10.8137 14.1071 11.262 14.1071H17.2528C17.7012 14.1071 18.0647 13.7436 18.0647 13.2952C18.0647 12.8469 17.7012 12.4834 17.2528 12.4834Z" fill="#696A6A"/>
  <path d="M17.2528 17.5674H11.262C10.8137 17.5674 10.4502 17.9309 10.4502 18.3792C10.4502 18.8276 10.8137 19.1911 11.262 19.1911H17.2528C17.7012 19.1911 18.0647 18.8276 18.0647 18.3792C18.0647 17.9309 17.7012 17.5674 17.2528 17.5674Z" fill="#696A6A"/>
  <path d="M17.2528 22.6445H11.262C10.8137 22.6445 10.4502 23.008 10.4502 23.4564C10.4502 23.9047 10.8137 24.2682 11.262 24.2682H17.2528C17.7012 24.2682 18.0647 23.9047 18.0647 23.4564C18.0647 23.008 17.7012 22.6445 17.2528 22.6445Z" fill="#696A6A"/>
</svg>