<svg width="16" height="16" viewBox="0 0 16 16" fill="none" xmlns="http://www.w3.org/2000/svg">
<path d="M8.00033 13.3337C6.51144 13.3337 5.25033 12.817 4.21699 11.7837C3.18366 10.7503 2.66699 9.48922 2.66699 8.00033C2.66699 6.51144 3.18366 5.25033 4.21699 4.21699C5.25033 3.18366 6.51144 2.66699 8.00033 2.66699C8.76699 2.66699 9.50033 2.82522 10.2003 3.14166C10.9003 3.45811 11.5003 3.91099 12.0003 4.50033V3.33366C12.0003 3.14477 12.0643 2.98655 12.1923 2.85899C12.3203 2.73144 12.4785 2.66744 12.667 2.66699C12.8554 2.66655 13.0139 2.73055 13.1423 2.85899C13.2708 2.98744 13.3345 3.14566 13.3337 3.33366V6.66699C13.3337 6.85588 13.2697 7.01433 13.1417 7.14233C13.0137 7.27033 12.8554 7.33411 12.667 7.33366H9.33366C9.14477 7.33366 8.98655 7.26966 8.85899 7.14166C8.73144 7.01366 8.66744 6.85544 8.66699 6.66699C8.66655 6.47855 8.73055 6.32033 8.85899 6.19233C8.98744 6.06433 9.14566 6.00033 9.33366 6.00033H11.467C11.1114 5.37811 10.6254 4.88922 10.009 4.53366C9.39255 4.17811 8.72299 4.00033 8.00033 4.00033C6.88921 4.00033 5.94477 4.38922 5.16699 5.16699C4.38921 5.94477 4.00033 6.88922 4.00033 8.00033C4.00033 9.11144 4.38921 10.0559 5.16699 10.8337C5.94477 11.6114 6.88921 12.0003 8.00033 12.0003C8.75588 12.0003 9.44766 11.8088 10.0757 11.4257C10.7037 11.0426 11.1897 10.5285 11.5337 9.88366C11.6225 9.72811 11.7477 9.61988 11.909 9.55899C12.0703 9.49811 12.2341 9.49522 12.4003 9.55033C12.5781 9.60588 12.7059 9.72255 12.7837 9.90033C12.8614 10.0781 12.8559 10.2448 12.767 10.4003C12.3114 11.2892 11.6614 12.0003 10.817 12.5337C9.97255 13.067 9.03366 13.3337 8.00033 13.3337Z" fill="white"/>
</svg>
