<svg width="31" height="31" viewBox="0 0 31 31" fill="none" xmlns="http://www.w3.org/2000/svg">
<path d="M3.5 1.75C2.96957 1.75 2.46086 1.96071 2.08579 2.33579C1.71071 2.71086 1.5 3.21957 1.5 3.75V27.75C1.5 28.2804 1.71071 28.7891 2.08579 29.1642C2.46086 29.5393 2.96957 29.75 3.5 29.75H27.5C28.0304 29.75 28.5391 29.5393 28.9142 29.1642C29.2893 28.7891 29.5 28.2804 29.5 27.75V3.75C29.5 3.21957 29.2893 2.71086 28.9142 2.33579C28.5391 1.96071 28.0304 1.75 27.5 1.75H3.5ZM3.5 0.75H27.5C28.2956 0.75 29.0587 1.06607 29.6213 1.62868C30.1839 2.19129 30.5 2.95435 30.5 3.75V27.75C30.5 28.5456 30.1839 29.3087 29.6213 29.8713C29.0587 30.4339 28.2956 30.75 27.5 30.75H3.5C2.70435 30.75 1.94129 30.4339 1.37868 29.8713C0.81607 29.3087 0.5 28.5456 0.5 27.75L0.5 3.75C0.5 2.95435 0.81607 2.19129 1.37868 1.62868C1.94129 1.06607 2.70435 0.75 3.5 0.75Z" fill="#DBDBDB"/>
<path d="M12.7507 21.0002C12.6007 21.0003 12.4542 20.9555 12.3299 20.8715C12.2057 20.7875 12.1096 20.6682 12.0538 20.529C11.9981 20.3898 11.9853 20.2372 12.0171 20.0907C12.049 19.9442 12.1241 19.8106 12.2327 19.7071L16.9087 15.2502L12.2327 10.7931C12.1613 10.7252 12.1041 10.6438 12.0643 10.5537C12.0244 10.4637 12.0027 10.3666 12.0003 10.2682C11.9979 10.1697 12.015 10.0717 12.0505 9.97983C12.086 9.88794 12.1392 9.80395 12.2071 9.73264C12.2751 9.66133 12.3564 9.60412 12.4465 9.56424C12.5366 9.52437 12.6336 9.50258 12.7321 9.50022C12.8306 9.49785 12.9286 9.51495 13.0205 9.55045C13.1124 9.58595 13.1964 9.63917 13.2677 9.70713L18.5137 14.7071C18.5872 14.7772 18.6457 14.8614 18.6857 14.9547C18.7257 15.0481 18.7463 15.1486 18.7463 15.2502C18.7463 15.3517 18.7257 15.4522 18.6857 15.5455C18.6457 15.6388 18.5872 15.7231 18.5137 15.7931L13.2677 20.7931C13.1284 20.9261 12.9432 21.0003 12.7507 21.0002Z" fill="#DBDBDB"/>
</svg>
