<svg width="16" height="22" viewBox="0 0 16 22" fill="none" xmlns="http://www.w3.org/2000/svg">
<path d="M6.721 7.29L4.891 7.956V11.5H2.891V6.55H2.906L8.174 4.632C8.418 4.539 8.684 4.492 8.956 4.501C9.49935 4.51514 10.0249 4.69792 10.4597 5.02401C10.8946 5.3501 11.2172 5.80336 11.383 6.321C11.569 6.90433 11.739 7.298 11.893 7.502C12.3587 8.12234 12.9624 8.62581 13.6563 8.97258C14.3502 9.31936 15.1153 9.49992 15.891 9.5V11.5C14.8583 11.5008 13.8383 11.2729 12.9043 10.8325C11.9702 10.3921 11.1454 9.75021 10.489 8.953L9.908 12.25L11.891 14.17V21.5H9.891V15.514L7.841 13.527L6.894 17.825L0 16.61L0.348 14.64L5.272 15.508L6.721 7.29ZM10.391 4C9.86057 4 9.35186 3.78929 8.97679 3.41421C8.60171 3.03914 8.391 2.53043 8.391 2C8.391 1.46957 8.60171 0.960859 8.97679 0.585786C9.35186 0.210714 9.86057 0 10.391 0C10.9214 0 11.4301 0.210714 11.8052 0.585786C12.1803 0.960859 12.391 1.46957 12.391 2C12.391 2.53043 12.1803 3.03914 11.8052 3.41421C11.4301 3.78929 10.9214 4 10.391 4Z" fill="white"/>
</svg>
