<svg xmlns="http://www.w3.org/2000/svg" width="28" height="22" viewBox="0 0 28 22" fill="none">
  <path d="M27.4939 0H0.506023C0.371817 0 0.243108 0.0533131 0.148211 0.148211C0.053313 0.243109 0 0.371817 0 0.506023V16.1315C0 16.2657 0.053313 16.3944 0.148211 16.4893C0.243108 16.5842 0.371817 16.6375 0.506023 16.6375H11.4513V18.9989H8.77725C8.37855 18.9994 7.99632 19.158 7.71445 19.44C7.43258 19.7219 7.2741 20.1042 7.2738 20.5029V21.5021C7.2738 21.6363 7.32712 21.765 7.42201 21.8599C7.51691 21.9548 7.64562 22.0081 7.77982 22.0081H20.219C20.3532 22.0081 20.4819 21.9548 20.5768 21.8599C20.6717 21.765 20.725 21.6363 20.725 21.5021V20.5046C20.7243 20.1056 20.5653 19.7231 20.2829 19.4412C20.0005 19.1592 19.6178 19.0008 19.2188 19.0006H16.547V16.6392H27.4939C27.6281 16.6392 27.7568 16.5859 27.8517 16.491C27.9466 16.3961 27.9999 16.2673 27.9999 16.1331V0.506023C27.9999 0.371817 27.9466 0.243109 27.8517 0.148211C27.7568 0.0533131 27.6281 0 27.4939 0ZM19.713 20.5046V20.9977H8.28585V20.5046C8.28585 20.3742 8.3376 20.2492 8.42974 20.1569C8.52188 20.0647 8.64687 20.0128 8.77725 20.0127H19.2188C19.2835 20.0125 19.3477 20.0251 19.4075 20.0498C19.4674 20.0744 19.5219 20.1106 19.5678 20.1563C19.6137 20.202 19.6501 20.2562 19.675 20.316C19.6999 20.3758 19.7128 20.4399 19.713 20.5046ZM15.5349 18.9995H12.4634V16.638H15.5349V18.9995ZM26.9879 15.626H1.01205V1.01205H26.9879V15.626Z" fill="#696A6A"/>
  <path d="M25.6314 1.90039H2.26089C2.06422 1.90039 1.90332 2.0605 1.90332 2.25618V14.2369C1.90332 14.4361 2.06422 14.5927 2.26089 14.5927H25.6314C25.8281 14.5927 25.989 14.4361 25.989 14.2369V2.25618C25.989 2.0605 25.8281 1.90039 25.6314 1.90039ZM14.0294 8.46955L12.0663 7.01437L14.0294 6.0573L15.9924 7.01437L14.0294 8.46955ZM16.3178 7.66191V9.77884L14.3869 10.9956V9.09217L16.3178 7.66191ZM13.6718 9.09217V10.9956L11.741 9.77884V7.66191L13.6718 9.09217ZM2.61845 2.61197L13.6718 2.61197V5.43823L11.2261 6.63368C11.1152 6.68705 11.0401 6.79378 11.0258 6.91831C11.0222 6.93966 11.0258 9.90693 11.0258 9.90693L2.61845 13.326V2.61197ZM3.06541 13.8811C3.06541 13.8811 11.4764 10.4655 11.4835 10.4584C11.4835 10.4584 13.847 11.9492 13.8542 11.9492C13.9078 11.9812 13.9686 11.9954 14.0294 11.9954C14.0902 11.9954 14.151 11.9812 14.2046 11.9492C14.2117 11.9492 16.7791 10.3303 16.7791 10.3303L24.8305 13.8811H3.06541ZM25.2739 13.3189L17.0329 9.62586C17.0329 9.62586 17.0365 6.93966 17.0329 6.91831C17.0186 6.79378 16.9435 6.68705 16.8327 6.63368L14.3869 5.43823V2.61197H25.2739V13.3189Z" fill="#696A6A"/>
</svg>