<svg width="48" height="48" viewBox="0 0 48 48" fill="none" xmlns="http://www.w3.org/2000/svg">
<path d="M24 2C36.1503 2 46 11.8497 46 24C46 36.1503 36.1503 46 24 46C11.8497 46 2 36.1503 2 24C2 11.8497 11.8497 2 24 2Z" fill="#D01846" stroke="black" stroke-width="4" stroke-linecap="round"/>
<path d="M36.8403 32.4635C31.2289 21.8364 15.7712 21.8364 10.1598 32.4635C9.78003 33.1826 10.104 34.073 10.856 34.3843C10.8647 34.3881 10.8733 34.3914 10.882 34.3952C11.5423 34.6685 12.3009 34.3935 12.6356 33.7623C17.2167 25.1275 29.7845 25.1275 34.3655 33.7623C34.7003 34.3935 35.4588 34.6685 36.1192 34.3952L36.1452 34.3843C36.8972 34.073 37.2211 33.1831 36.8413 32.4635H36.8403Z" fill="black"/>
<path d="M33.6522 16.6825C33.6522 18.0261 32.5625 19.1152 31.2182 19.1152C29.8739 19.1152 28.7842 18.0261 28.7842 16.6825C28.7842 15.339 29.8739 14.2499 31.2182 14.2499C32.5625 14.2499 33.6522 15.339 33.6522 16.6825Z" fill="black"/>
<path d="M18.2147 16.6825C18.2147 18.0261 17.125 19.1152 15.7807 19.1152C14.4364 19.1152 13.3467 18.0261 13.3467 16.6825C13.3467 15.339 14.4364 14.2499 15.7807 14.2499C17.125 14.2499 18.2147 15.339 18.2147 16.6825Z" fill="black"/>
</svg>
