<svg width="48" height="48" viewBox="0 0 48 48" fill="none" xmlns="http://www.w3.org/2000/svg">
<path d="M24 2C36.1503 2 46 11.8497 46 24C46 36.1503 36.1503 46 24 46C11.8497 46 2 36.1503 2 24C2 11.8497 11.8497 2 24 2Z" fill="#18A274" stroke="black" stroke-width="4" stroke-linecap="round"/>
<path d="M37.3407 27.8433C31.729 38.7178 16.2714 38.7178 10.6597 27.8433C10.2791 27.1055 10.6054 26.1971 11.3558 25.8783L11.3811 25.8671C12.0409 25.5891 12.7986 25.8671 13.1357 26.516C17.7179 35.3512 30.2826 35.3512 34.8648 26.516C35.1983 25.8708 35.9595 25.5891 36.6193 25.8671L36.6447 25.8783C37.3951 26.1971 37.7214 27.1092 37.3407 27.8433Z" fill="black"/>
<path d="M12.8415 20.3019C12.7255 20.3019 12.6095 20.2834 12.4971 20.2426C11.9425 20.0498 11.6488 19.4306 11.8373 18.8633C12.6385 16.4793 14.2988 15 16.1694 15C18.0436 15 19.7039 16.4793 20.5014 18.8633C20.6899 19.4306 20.3963 20.0461 19.8416 20.2426C19.287 20.4354 18.6852 20.1351 18.4931 19.5678C17.9964 18.0885 17.1046 17.169 16.1657 17.169C15.2268 17.169 14.335 18.0885 13.8384 19.5678C13.6861 20.0164 13.2765 20.3019 12.8342 20.3019H12.8415Z" fill="black"/>
<path d="M28.8718 20.3019C28.7558 20.3019 28.6398 20.2834 28.5274 20.2426C27.9727 20.0498 27.6791 19.4306 27.8676 18.8633C28.6688 16.4793 30.3291 15 32.1996 15C34.0738 15 35.7341 16.4793 36.5317 18.8633C36.7202 19.4306 36.4265 20.0461 35.8719 20.2426C35.3172 20.4354 34.7155 20.1351 34.5233 19.5678C34.0267 18.0885 33.1349 17.169 32.196 17.169C31.2571 17.169 30.3653 18.0885 29.8687 19.5678C29.7164 20.0164 29.3068 20.3019 28.8645 20.3019H28.8718Z" fill="black"/>
</svg>
