<svg width="36" height="36" viewBox="0 0 36 36" fill="none" xmlns="http://www.w3.org/2000/svg">
<rect x="1" y="1" width="34" height="34" rx="17" fill="#444444" stroke="white" stroke-width="2"/>
<path d="M22.5 25.1053H13.5V26.0526C13.5 26.3039 13.4052 26.5449 13.2364 26.7225C13.0676 26.9002 12.8387 27 12.6 27H11.7C11.4613 27 11.2324 26.9002 11.0636 26.7225C10.8948 26.5449 10.8 26.3039 10.8 26.0526V25.1053H9.9V17.5263H9V13.7368H9.9V10.8947C9.9 10.3922 10.0896 9.91029 10.4272 9.55496C10.7648 9.19962 11.2226 9 11.7 9H24.3C24.7774 9 25.2352 9.19962 25.5728 9.55496C25.9104 9.91029 26.1 10.3922 26.1 10.8947V13.7368H27V17.5263H26.1V25.1053H25.2V26.0526C25.2 26.3039 25.1052 26.5449 24.9364 26.7225C24.7676 26.9002 24.5387 27 24.3 27H23.4C23.1613 27 22.9324 26.9002 22.7636 26.7225C22.5948 26.5449 22.5 26.3039 22.5 26.0526V25.1053ZM24.3 17.5263V10.8947H11.7V17.5263H24.3ZM24.3 19.4211H11.7V23.2105H24.3V19.4211ZM12.6 20.3684H16.2V22.2632H12.6V20.3684ZM19.8 20.3684H23.4V22.2632H19.8V20.3684Z" fill="white"/>
</svg>