<svg width="48" height="48" viewBox="0 0 48 48" fill="none" xmlns="http://www.w3.org/2000/svg">
<path d="M24 48C37.2548 48 48 37.2548 48 24C48 10.7452 37.2548 0 24 0C10.7452 0 0 10.7452 0 24C0 37.2548 10.7452 48 24 48Z" fill="#FEA246"/>
<path d="M44 24C44 12.9543 35.0457 4 24 4C12.9543 4 4 12.9543 4 24C4 35.0457 12.9543 44 24 44V48C10.7452 48 0 37.2548 0 24C0 10.7452 10.7452 0 24 0C37.2548 0 48 10.7452 48 24C48 37.2548 37.2548 48 24 48V44C35.0457 44 44 35.0457 44 24ZM32 29C33.1046 29 34 29.8954 34 31C34 32.1046 33.1046 33 32 33H16.8008C15.6962 33 14.8008 32.1046 14.8008 31C14.8008 29.8954 15.6962 29 16.8008 29H32ZM17.0391 14.8008C18.1436 14.8008 19.0391 15.6962 19.0391 16.8008V16.9922C19.0391 18.0968 18.1436 18.9922 17.0391 18.9922H16.8008C15.6962 18.9922 14.8008 18.0968 14.8008 16.9922V16.8008C14.8008 15.6962 15.6962 14.8008 16.8008 14.8008H17.0391ZM31.4121 14.8008C32.5167 14.8008 33.4121 15.6962 33.4121 16.8008V16.9922C33.4121 18.0968 32.5167 18.9922 31.4121 18.9922H31.1992C30.095 18.9918 29.1992 18.0965 29.1992 16.9922V16.8008C29.1992 15.6965 30.095 14.8012 31.1992 14.8008H31.4121Z" fill="black"/>
</svg>
