<svg width="24" height="24" viewBox="0 0 24 24" fill="none" xmlns="http://www.w3.org/2000/svg">
<path d="M21.9016 8.9L20.2016 9.9L16.2016 3L17.9016 2L21.9016 8.9ZM9.80156 7.9L12.8016 13.1L18.9016 9.6L15.9016 4.4L9.80156 7.9ZM11.4016 12.7L9.40156 9.2L5.10156 11.7L7.10156 15.2L11.4016 12.7ZM2.10156 14.6L3.10156 16.3L5.70156 14.8L4.70156 13.1L2.10156 14.6ZM12.1016 14L11.8016 13.6L7.50156 16.1L7.80156 16.5C8.00156 16.8 8.30156 17.1 8.60156 17.3L7.00156 22H9.00156L10.4016 17.7H10.5016L12.0016 22H14.0016L12.1016 16.4C12.6016 15.7 12.6016 14.8 12.1016 14Z" fill="white"/>
</svg>
