<svg xmlns="http://www.w3.org/2000/svg" width="64" height="64" viewBox="0 0 64 64" fill="none">
  <mask id="mask0_1865_19311" style="mask-type:luminance" maskUnits="userSpaceOnUse" x="4" y="4" width="56" height="55">
    <path d="M4.6626 4.99951H59.6626V58.9995H4.6626V4.99951Z" fill="white"/>
  </mask>
  <g mask="url(#mask0_1865_19311)">
    <path d="M37.3378 52.1904C39.0165 51.5975 40.539 50.6742 41.8275 49.4987C43.9495 50.401 46.4652 50.2776 48.557 48.945C51.2073 47.2565 52.3865 44.1307 51.7275 41.2326C54.4818 39.6896 56.3438 36.7434 56.3438 33.3619C56.3438 29.9385 54.4355 26.9605 51.6246 25.4339C51.6867 25.0223 51.7192 24.601 51.7192 24.1722C51.7192 20.1427 48.8804 16.7777 45.0941 15.9643C44.4807 14.1226 42.7444 12.7943 40.6967 12.7943C39.8242 12.7943 39.0082 13.0358 38.3114 13.455C36.6324 11.9639 34.4221 11.0579 32 11.0579C28.7694 11.0579 25.9158 12.6693 24.1974 15.1319C23.5051 14.1413 22.357 13.4929 21.0568 13.4929C18.9721 13.4929 17.2777 15.1586 17.2289 17.2315C17.2281 17.2315 17.2273 17.2314 17.2266 17.2314C13.2952 17.2314 10.1081 20.4185 10.1081 24.3498C10.1081 25.5735 10.4172 26.7249 10.9612 27.7307C8.9438 29.3841 7.65625 31.8949 7.65625 34.7067C7.65625 38.6912 10.2421 42.0698 13.8265 43.2614C13.8191 43.389 13.8143 43.5172 13.8143 43.6467C13.8143 47.2573 16.7413 50.1842 20.3519 50.1842C21.6062 50.1842 22.7776 49.8304 23.7728 49.2179C25.1219 50.5271 26.7497 51.5506 28.5589 52.19" stroke="white" stroke-width="3" stroke-miterlimit="10" stroke-linecap="round" stroke-linejoin="round"/>
    <path d="M33.2021 34.0747L35.8484 38.6582C38.3098 37.2372 39.6861 34.6606 39.6922 32.0093L39.6888 32.0065H34.5108" stroke="white" stroke-width="2" stroke-miterlimit="10" stroke-linecap="round" stroke-linejoin="round"/>
    <path d="M33.1997 29.9208L35.8447 25.3393C33.3833 23.9183 30.4639 24.0146 28.1648 25.335L28.1641 25.3393L30.8093 29.9209" stroke="white" stroke-width="2" stroke-miterlimit="10" stroke-linecap="round" stroke-linejoin="round"/>
    <path d="M29.548 31.9981H24.3076C24.3076 34.8403 25.8508 37.3205 28.1438 38.6514L28.148 38.6498L30.7516 34.1401" stroke="white" stroke-width="2" stroke-miterlimit="10" stroke-linecap="round" stroke-linejoin="round"/>
    <path d="M43.6453 31.9994C43.6453 25.5663 38.4303 20.3513 31.9972 20.3513C25.5641 20.3513 20.3491 25.5663 20.3491 31.9994C20.3491 38.4325 25.5641 43.6475 31.9972 43.6475C38.4303 43.6475 43.6453 38.4325 43.6453 31.9994Z" stroke="white" stroke-miterlimit="10" stroke-linecap="round" stroke-linejoin="round"/>
    <path d="M32.0029 29.6328C30.6912 29.6328 29.6279 30.6961 29.6279 32.0078C29.6279 33.3195 30.6912 34.3828 32.0029 34.3828C33.3146 34.3828 34.3779 33.3195 34.3779 32.0078C34.3779 30.6961 33.3146 29.6328 32.0029 29.6328Z" stroke="white" stroke-width="2" stroke-miterlimit="10" stroke-linecap="round" stroke-linejoin="round"/>
  </g>
</svg>