<svg width="24" height="24" viewBox="0 0 24 24" fill="none" xmlns="http://www.w3.org/2000/svg">
<path d="M14.7708 22.5647L12.1013 17.1684L9.99188 14.4703C9.68015 13.9426 9.51569 13.3409 9.51562 12.728V6.65625H10.253C10.7538 6.65712 11.2339 6.85657 11.5879 7.21086C11.942 7.56516 12.1411 8.04539 12.1416 8.54625V16.1644" fill="white"/>
<path d="M14.7708 22.5647L12.1013 17.1684L9.99188 14.4703C9.68015 13.9426 9.51569 13.3409 9.51562 12.728V6.65625H10.253C10.7538 6.65712 11.2339 6.85657 11.5879 7.21086C11.942 7.56516 12.1411 8.04539 12.1416 8.54625V16.1644" stroke="white" stroke-width="1.5" stroke-linecap="square" stroke-linejoin="round"/>
<path d="M6.00781 13.6658V10.1609L9.05234 7.10938" stroke="white" stroke-width="1.5" stroke-linecap="square" stroke-linejoin="round"/>
<path d="M17.6398 13.8622L13.7047 11.2194V9.125L18.6116 12.5445L17.6398 13.8622ZM8.20766 23.3708L7.20312 22.1094L10.9686 18.2872L11.6966 19.7905L8.20766 23.3708Z" fill="white"/>
<path d="M12.1428 4.90281C13.1105 4.90281 13.895 4.11833 13.895 3.15062C13.895 2.18292 13.1105 1.39844 12.1428 1.39844C11.1751 1.39844 10.3906 2.18292 10.3906 3.15062C10.3906 4.11833 11.1751 4.90281 12.1428 4.90281Z" fill="white" stroke="white" stroke-width="0.75" stroke-linecap="square" stroke-linejoin="round"/>
</svg>
